<?xml version="1.0" encoding="UTF-8" standalone="yes"?>
<!-- Created with sK1/UniConvertor (http://sk1project.org/) -->
<svg xmlns="http://www.w3.org/2000/svg" xmlns:xlink="http://www.w3.org/1999/xlink"
  width="321.6pt" height="152.8pt" viewBox="0 0 321.6 152.8"
  fill-rule="evenodd">
<g>
<path style="stroke:none; fill:#ffffff" d="M 0 0L 0 152.8L 321.6 152.8L 321.6 0L 0 0z"/>
<path style="stroke:none; fill:#d6deea" d="M 229.6 32L 229.6 32.8L 240.8 32.8C 237.426 31.3846 233.233 32 229.6 32M 225.6 32.8L 225.6 33.6L 228 33.6C 227.002 33.0522 226.762 33.001 225.6 32.8z"/>
<path style="stroke:none; fill:#b5c5e6" d="M 225.6 50.4L 222.4 49.6L 222.4 50.4L 227.2 52C 228.349 45.3236 232.042 39.3752 233.6 32.8C 229.775 32.8317 215.366 33.5482 215.366 39.2809C 215.366 43.0256 223.11 47.9173 225.6 50.4z"/>
<path style="stroke:none; fill:#cdd9ec" d="M 227.2 51.2C 236.214 49.2738 244.86 44.5566 253.6 41.6L 253.6 53.6L 270.4 53.6C 268.678 47.6087 260.024 44.0202 254.4 42.4L 254.4 40.8L 257.6 40C 254.264 34.8922 239.789 29.4462 234.159 33.6222C 230.376 36.4287 227.968 46.7358 227.2 51.2z"/>
<path style="stroke:none; fill:#d6deea" d="M 213.6 38.4C 212.044 39.8899 210.565 41.1747 208.8 42.4L 208.8 43.2C 214.441 45.5485 219.611 48.9774 225.6 50.4C 222.362 45.8162 217.721 42.1945 213.6 38.4M 254.4 40.8L 254.4 42.4C 258.483 44.1006 262.19 46.6676 266.4 48C 264.156 43.1907 259.905 38.8465 254.4 40.8z"/>
<path style="stroke:none; fill:#9db3dd" d="M 229.6 50.4L 229.6 51.2C 236.676 53.2962 245.423 53.5951 252.8 53.6C 253.311 49.558 253.6 45.6806 253.6 41.6C 245.575 43.5018 237.138 47.0429 229.6 50.4z"/>
<path style="stroke:none; fill:#839fd4" d="M 208 43.2C 205.408 50.905 211.17 64.1511 213.099 72C 213.87 75.1339 216.157 79.5769 214.4 82.4C 215.165 85.6136 215.2 88.7096 215.2 92L 216 92C 216 88.808 215.621 85.8128 217.6 83.2C 216.323 76.5403 223.35 53.8419 230.4 52C 223.517 49.3014 215.352 44.5106 208 43.2z"/>
<path style="stroke:none; fill:#5079c5" d="M 215.2 82.4C 214.238 70.3146 209.897 58.1923 207.2 46.4C 199.433 50.3807 197.6 62.5587 197.6 70.4C 197.6 72.809 196.943 76.6825 198.543 78.7179C 201.034 81.8872 211.388 82.236 215.2 82.4z"/>
<path style="stroke:none; fill:#b5c5e6" d="M 203.2 48.8L 204 49.6L 203.2 48.8M 252.8 50.4L 252.8 54.4L 260 54.4L 260 53.6L 253.6 53.6C 253.461 52.2518 253.346 51.6049 252.8 50.4z"/>
<path style="stroke:none; fill:#acb8d2" d="M 36.8 51.2L 36.8 52L 40.8 52C 39.3848 51.3769 38.3713 51.2701 36.8 51.2z"/>
<path style="stroke:none; fill:#8da6d2" d="M 40.8 51.2L 40.8 52L 47.2 52C 45.1098 51.1218 43.0684 51.2058 40.8 51.2z"/>
<path style="stroke:none; fill:#b5c5e6" d="M 47.7334 51.4666C 47.3778 51.8222 48.2222 51.7778 48.2666 51.7334C 48.6222 51.3778 47.7778 51.4222 47.7334 51.4666z"/>
<path style="stroke:none; fill:#8da6d2" d="M 201.866 51.7334C 201.822 51.7778 201.778 52.6222 202.134 52.2666C 202.178 52.2222 202.222 51.3778 201.866 51.7334z"/>
<path style="stroke:none; fill:#b5c5e6" d="M 34.4 52L 34.4 52.8L 36.8 52.8C 35.8014 52.2522 35.5613 52.201 34.4 52z"/>
<path style="stroke:none; fill:#5e83c6" d="M 37.3334 52.2666C 36.9778 52.6222 37.8222 52.5778 37.8666 52.5334C 38.2222 52.1778 37.3778 52.2222 37.3334 52.2666z"/>
<path style="stroke:none; fill:#0642ac" d="M 48 88L 48 88.8C 55.8902 88.3904 64.3557 80.8384 58.0531 72.8747C 54.0694 67.841 47.1445 66.6338 41.6 64.1074C 39.2654 63.0436 34.4435 60.8786 34.905 57.6321C 35.4534 53.7734 41.0961 53.4741 44 53.6358C 50.5944 54.003 53.2077 57.9258 52.8 64C 58.638 63.9794 63.0563 59.9297 56.6488 55.3154C 50.6406 50.9888 31.4193 49.2318 28.5179 58.4123C 27.4498 61.7919 30.4186 64.9507 32.8123 66.8877C 39.5618 72.349 66.2969 78.1812 48 88z"/>
<path style="stroke:none; fill:#6c8fcc" d="M 48 52L 48 52.8L 50.4 52.8C 49.4014 52.2522 49.1613 52.201 48 52z"/>
<path style="stroke:none; fill:#b5c5e6" d="M 50.4 52L 50.4 52.8L 52.8 52.8C 51.8013 52.2522 51.5613 52.201 50.4 52M 142.4 52L 142.4 52.8L 147.2 52.8C 145.558 52.1006 144.202 52.0378 142.4 52z"/>
<path style="stroke:none; fill:#2c5fb8" d="M 227.2 53.6L 229.6 52.8C 228.178 52.0356 227.983 52.187 227.2 53.6z"/>
<path style="stroke:none; fill:#5079c5" d="M 229.6 52L 229.6 52.8L 233.6 52.8C 232.185 52.1768 231.171 52.0701 229.6 52z"/>
<path style="stroke:none; fill:#6c8fcc" d="M 233.6 52L 233.6 52.8L 237.6 52.8C 236.185 52.1768 235.171 52.0701 233.6 52z"/>
<path style="stroke:none; fill:#8da6d2" d="M 33.3334 53.0666C 32.9778 53.4222 33.8222 53.3778 33.8666 53.3334C 34.2222 52.9778 33.3778 53.0222 33.3334 53.0666z"/>
<path style="stroke:none; fill:#2c5fb8" d="M 34.9334 53.0666C 34.5778 53.4222 35.4222 53.3778 35.4666 53.3334C 35.8222 52.9778 34.9778 53.0222 34.9334 53.0666z"/>
<path style="stroke:none; fill:#5e83c6" d="M 51.2 52.8L 51.2 53.6L 53.6 53.6C 52.6013 53.0522 52.3613 53.001 51.2 52.8z"/>
<path style="stroke:none; fill:#d6deea" d="M 54.1334 53.0666C 53.7778 53.4222 54.6222 53.3778 54.6666 53.3334C 55.0222 52.9778 54.1778 53.0222 54.1334 53.0666M 140.8 52.8L 140.8 60L 141.6 60C 141.621 57.5026 141.821 55.2316 142.4 52.8L 140.8 52.8z"/>
<path style="stroke:none; fill:#2c5fb8" d="M 142.4 52.8L 142.4 53.6L 147.2 53.6C 145.558 52.9006 144.202 52.8378 142.4 52.8z"/>
<path style="stroke:none; fill:#839fd4" d="M 201.066 53.3334C 201.022 53.3778 200.978 54.2222 201.334 53.8666C 201.378 53.8222 201.422 52.9778 201.066 53.3334z"/>
<path style="stroke:none; fill:#0642ac" d="M 228 52.8C 228.367 60.8326 231.362 68.7192 232 76.8C 239.059 73.4386 248.828 61.5169 252 54.4C 243.939 54.4 236.031 52.8665 228 52.8z"/>
<path style="stroke:none; fill:#2c5fb8" d="M 233.6 52.8L 233.6 53.6L 237.6 53.6C 236.185 52.9768 235.171 52.8701 233.6 52.8z"/>
<path style="stroke:none; fill:#5079c5" d="M 237.6 52.8L 237.6 53.6L 241.6 53.6C 240.185 52.9768 239.171 52.8701 237.6 52.8z"/>
<path style="stroke:none; fill:#839fd4" d="M 241.6 52.8L 241.6 53.6L 245.6 53.6C 244.185 52.9769 243.171 52.8701 241.6 52.8M 32 53.6L 32.8 54.4L 32 53.6z"/>
<path style="stroke:none; fill:#5176b9" d="M 38.1334 53.8666C 37.7778 54.2222 38.6222 54.1778 38.6666 54.1334C 39.0222 53.7778 38.1778 53.8222 38.1334 53.8666z"/>
<path style="stroke:none; fill:#748dba" d="M 39.2 53.6L 39.2 54.4L 45.6 54.4C 43.5098 53.5218 41.4684 53.6058 39.2 53.6z"/>
<path style="stroke:none; fill:#3968bb" d="M 45.6 53.6L 45.6 54.4L 48 54.4C 47.0014 53.8522 46.7613 53.801 45.6 53.6z"/>
<path style="stroke:none; fill:#6c8fcc" d="M 54.4 53.6L 55.2 54.4L 54.4 53.6z"/>
<path style="stroke:none; fill:#5e83c6" d="M 141.6 53.6L 141.6 59.2L 142.4 59.2C 142.385 57.1653 142.388 55.4653 141.6 53.6z"/>
<path style="stroke:none; fill:#0642ac" d="M 142.4 53.6C 142.4 60.1755 136.614 76.9058 145.6 77.6C 144.618 70.7084 153.174 53.9538 142.4 53.6z"/>
<path style="stroke:none; fill:#5e83c6" d="M 147.2 53.6L 148 54.4L 147.2 53.6z"/>
<path style="stroke:none; fill:#cdd9ec" d="M 225.6 53.6C 223.418 63.0302 218.845 71.9691 217.6 81.6C 222.259 81.1936 226.627 79.3464 231.2 78.4C 231.131 70.0556 228.267 61.8645 227.2 53.6L 225.6 53.6z"/>
<path style="stroke:none; fill:#5e83c6" d="M 227.466 54.1334C 227.422 54.1778 227.378 55.0222 227.734 54.6666C 227.778 54.6222 227.822 53.7778 227.466 54.1334z"/>
<path style="stroke:none; fill:#2c5fb8" d="M 241.6 53.6L 241.6 54.4L 245.6 54.4C 244.185 53.7768 243.171 53.6701 241.6 53.6z"/>
<path style="stroke:none; fill:#5079c5" d="M 245.6 53.6L 245.6 54.4L 249.6 54.4C 248.185 53.7768 247.171 53.6701 245.6 53.6z"/>
<path style="stroke:none; fill:#6c8fcc" d="M 249.6 53.6L 249.6 54.4L 252 54.4L 250.4 57.6C 251.872 56.2262 252.279 55.5475 252.8 53.6L 249.6 53.6z"/>
<path style="stroke:none; fill:#acb8d2" d="M 260 53.6L 260 54.4C 263.809 54.4 267.476 54.3134 271.2 55.2C 268.823 52.4801 263.406 53.6 260 53.6M 30.4 54.4L 31.2 55.2L 30.4 54.4z"/>
<path style="stroke:none; fill:#839fd4" d="M 36.5334 54.6666C 36.1778 55.0222 37.0222 54.9778 37.0666 54.9334C 37.4222 54.5778 36.5778 54.6222 36.5334 54.6666z"/>
<path style="stroke:none; fill:#cdd9ec" d="M 38.1334 54.6666C 37.7778 55.0222 38.6222 54.9778 38.6666 54.9334C 39.0222 54.5778 38.1778 54.6222 38.1334 54.6666z"/>
<path style="stroke:none; fill:#b5c5e6" d="M 45.6 54.4L 45.6 55.2L 48 55.2C 47.0014 54.6522 46.7613 54.601 45.6 54.4z"/>
<path style="stroke:none; fill:#5176b9" d="M 48.5334 54.6666C 48.1778 55.0222 49.0222 54.9778 49.0666 54.9334C 49.4222 54.5778 48.5778 54.6222 48.5334 54.6666z"/>
<path style="stroke:none; fill:#839fd4" d="M 56 54.4L 56.8 55.2L 56 54.4z"/>
<path style="stroke:none; fill:#d6deea" d="M 119.2 54.4L 119.2 55.2L 123.2 55.2C 121.785 54.5769 120.771 54.4701 119.2 54.4z"/>
<path style="stroke:none; fill:#acb8d2" d="M 148 54.4L 148.8 55.2L 148 54.4z"/>
<path style="stroke:none; fill:#d6deea" d="M 172 54.4L 172 55.2L 176.8 55.2C 175.158 54.5006 173.802 54.4378 172 54.4z"/>
<path style="stroke:none; fill:#839fd4" d="M 200.266 54.9334C 200.222 54.9778 200.178 55.8222 200.534 55.4666C 200.578 55.4222 200.622 54.5778 200.266 54.9334M 252.8 54.4C 255.953 62.055 258.709 69.7266 261.334 77.6C 262.397 80.7896 264.317 84.1752 262.4 87.2L 262.4 88L 265.6 88C 266.222 80.8736 268.917 66.9841 273.6 61.6C 270.428 51.7327 261.75 54.4 252.8 54.4M 29.6 55.2L 30.4 56L 29.6 55.2z"/>
<path style="stroke:none; fill:#8da6d2" d="M 35.2 55.2L 36 56L 35.2 55.2M 49.6 55.2L 50.4 56L 49.6 55.2z"/>
<path style="stroke:none; fill:#5079c5" d="M 56.8 55.2L 57.6 56L 56.8 55.2z"/>
<path style="stroke:none; fill:#839fd4" d="M 118.934 55.4666C 118.578 55.8222 119.422 55.7778 119.466 55.7334C 119.822 55.3778 118.978 55.4222 118.934 55.4666z"/>
<path style="stroke:none; fill:#3968bb" d="M 120 55.2L 120 56L 123.2 56C 121.995 55.4536 121.348 55.3393 120 55.2z"/>
<path style="stroke:none; fill:#9db3dd" d="M 123.2 55.2L 124 56L 123.2 55.2z"/>
<path style="stroke:none; fill:#5176b9" d="M 148 55.2L 148 58.4L 148.8 58.4C 148.661 57.0518 148.546 56.4048 148 55.2z"/>
<path style="stroke:none; fill:#d6deea" d="M 148.8 55.2L 148.8 58.4L 149.6 58.4C 149.637 56.7452 149.64 56.5877 148.8 55.2z"/>
<path style="stroke:none; fill:#8da6d2" d="M 171.734 55.4666C 171.378 55.8222 172.222 55.7778 172.266 55.7334C 172.622 55.3778 171.778 55.4222 171.734 55.4666z"/>
<path style="stroke:none; fill:#5176b9" d="M 172.8 55.2L 172.8 56L 176.8 56C 175.385 55.3769 174.371 55.2701 172.8 55.2z"/>
<path style="stroke:none; fill:#9db3dd" d="M 227.466 55.7334C 227.422 55.7778 227.378 56.6222 227.734 56.2666C 227.778 56.2222 227.822 55.3778 227.466 55.7334z"/>
<path style="stroke:none; fill:#839fd4" d="M 28.8 56L 29.6 56.8L 28.8 56z"/>
<path style="stroke:none; fill:#acb8d2" d="M 34.4 56L 35.2 56.8L 34.4 56z"/>
<path style="stroke:none; fill:#6c8fcc" d="M 51.2 56L 52 56.8L 51.2 56z"/>
<path style="stroke:none; fill:#d6deea" d="M 116.8 56L 116.8 60.8L 117.6 60.8C 117.562 58.9978 117.499 57.6417 116.8 56z"/>
<path style="stroke:none; fill:#6c8fcc" d="M 117.6 56L 117.6 60.8L 118.4 60.8C 118.362 58.9978 118.299 57.6417 117.6 56z"/>
<path style="stroke:none; fill:#0642ac" d="M 118.4 56C 118.124 62.4322 113.818 77.6753 123.2 78.4C 120.991 73.154 121.148 64.2897 128 63.2L 128 60.8L 124 60.8L 124 56L 118.4 56z"/>
<path style="stroke:none; fill:#5e83c6" d="M 124 56L 124 60.8L 128 60.8L 128 60L 124.8 60C 124.73 58.4287 124.623 57.4153 124 56z"/>
<path style="stroke:none; fill:#9db3dd" d="M 152 56L 152 56.8L 155.2 56.8C 153.995 56.2536 153.348 56.1393 152 56M 170.4 56L 170.4 60.8L 171.2 60.8C 171.162 58.9978 171.099 57.6417 170.4 56z"/>
<path style="stroke:none; fill:#0642ac" d="M 171.2 56C 170.928 62.436 166.885 77.6958 176 78.4C 173.916 73.383 174.292 64.2622 180.8 63.2L 180.8 60.8L 176.8 60.8L 176.8 56L 171.2 56z"/>
<path style="stroke:none; fill:#3968bb" d="M 176.8 56L 176.8 60.8L 177.6 60.8C 177.562 58.9978 177.499 57.6417 176.8 56z"/>
<path style="stroke:none; fill:#b5c5e6" d="M 177.6 56L 177.6 60L 178.4 60C 178.33 58.4287 178.223 57.4152 177.6 56M 232.8 78.4C 242.191 82.3896 253.872 85.892 264 87.2C 263.07 76.5469 257.201 66.2616 254.4 56C 246.446 58.2326 236.849 71.3959 232.8 78.4z"/>
<path style="stroke:none; fill:#9db3dd" d="M 28 56.8L 28.8 57.6L 28 56.8z"/>
<path style="stroke:none; fill:#748dba" d="M 33.6 56.8L 33.6 59.2L 34.4 59.2C 34.199 58.0388 34.1478 57.7986 33.6 56.8z"/>
<path style="stroke:none; fill:#d6deea" d="M 34.4 56.8L 34.4 60L 35.2 60C 35.0607 58.6518 34.9464 58.0049 34.4 56.8z"/>
<path style="stroke:none; fill:#6c8fcc" d="M 52 56.8L 52.8 57.6L 52 56.8z"/>
<path style="stroke:none; fill:#5176b9" d="M 58.4 56.8L 59.2 57.6L 58.4 56.8z"/>
<path style="stroke:none; fill:#d6deea" d="M 124.8 56.8L 124.8 60L 125.6 60C 125.461 58.6518 125.346 58.0048 124.8 56.8z"/>
<path style="stroke:none; fill:#9db3dd" d="M 150.4 56.8L 151.2 57.6L 150.4 56.8z"/>
<path style="stroke:none; fill:#0642ac" d="M 151.682 57.637C 149.426 59.347 151.578 62.9351 154.158 61.4105C 157.11 59.6658 154.301 55.6534 151.682 57.637z"/>
<path style="stroke:none; fill:#5e83c6" d="M 155.2 56.8L 156 57.6L 155.2 56.8z"/>
<path style="stroke:none; fill:#5079c5" d="M 228 56.8L 228 59.2L 228.8 59.2C 228.599 58.0387 228.548 57.7987 228 56.8z"/>
<path style="stroke:none; fill:#b5c5e6" d="M 272.266 57.3334C 272.222 57.3778 272.178 58.2222 272.534 57.8666C 272.578 57.8222 272.622 56.9778 272.266 57.3334z"/>
<path style="stroke:none; fill:#9db3dd" d="M 27.2 57.6L 27.2 61.6L 28 61.6C 27.9299 60.0287 27.8231 59.0153 27.2 57.6z"/>
<path style="stroke:none; fill:#d6deea" d="M 52 57.6L 52 61.6L 52.8 61.6C 52.7299 60.0287 52.6231 59.0153 52 57.6z"/>
<path style="stroke:none; fill:#839fd4" d="M 52.8 57.6L 52.8 60.8L 53.6 60.8C 53.4607 59.4518 53.3464 58.8048 52.8 57.6z"/>
<path style="stroke:none; fill:#8da6d2" d="M 59.2 57.6L 60 58.4L 59.2 57.6z"/>
<path style="stroke:none; fill:#839fd4" d="M 149.6 57.6L 150.4 58.4L 149.6 57.6z"/>
<path style="stroke:none; fill:#3968bb" d="M 156 57.6L 156 60.8L 156.8 60.8C 156.661 59.4518 156.546 58.8048 156 57.6z"/>
<path style="stroke:none; fill:#5079c5" d="M 249.6 57.6L 250.4 58.4L 249.6 57.6z"/>
<path style="stroke:none; fill:#b5c5e6" d="M 60.2666 58.9334C 60.2222 58.9778 60.1778 59.8222 60.5334 59.4666C 60.5778 59.4222 60.6222 58.5778 60.2666 58.9334z"/>
<path style="stroke:none; fill:#8da6d2" d="M 148 58.4L 148 61.6L 148.8 61.6L 149.6 58.4L 148 58.4z"/>
<path style="stroke:none; fill:#2c5fb8" d="M 149.6 58.4L 149.6 61.6L 150.4 61.6C 150.261 60.2518 150.146 59.6048 149.6 58.4z"/>
<path style="stroke:none; fill:#cdd9ec" d="M 157.066 58.9334C 157.022 58.9778 156.978 59.8222 157.334 59.4666C 157.378 59.4222 157.422 58.5778 157.066 58.9334z"/>
<path style="stroke:none; fill:#8da6d2" d="M 198.666 58.9334C 198.622 58.9778 198.578 59.8222 198.934 59.4666C 198.978 59.4222 199.022 58.5778 198.666 58.9334z"/>
<path style="stroke:none; fill:#5176b9" d="M 248.8 58.4L 249.6 59.2L 248.8 58.4z"/>
<path style="stroke:none; fill:#d6deea" d="M 126.4 59.2L 126.4 60L 128.8 60C 127.802 59.4522 127.562 59.401 126.4 59.2z"/>
<path style="stroke:none; fill:#2c5fb8" d="M 141.6 59.2L 141.6 63.2L 142.4 63.2C 142.33 61.6287 142.223 60.6152 141.6 59.2z"/>
<path style="stroke:none; fill:#8da6d2" d="M 228.266 59.7334C 228.222 59.7778 228.178 60.6222 228.534 60.2666C 228.578 60.2222 228.622 59.3778 228.266 59.7334z"/>
<path style="stroke:none; fill:#2c5fb8" d="M 228.8 59.2L 228.8 61.6L 229.6 61.6C 229.399 60.4386 229.348 60.1987 228.8 59.2z"/>
<path style="stroke:none; fill:#acb8d2" d="M 273.066 59.7334C 273.022 59.7778 272.978 60.6222 273.334 60.2666C 273.378 60.2222 273.422 59.3778 273.066 59.7334z"/>
<path style="stroke:none; fill:#b5c5e6" d="M 35.2 60L 36 60.8L 35.2 60z"/>
<path style="stroke:none; fill:#8da6d2" d="M 60 60L 60 62.4L 60.8 62.4C 60.599 61.2388 60.5478 60.9986 60 60z"/>
<path style="stroke:none; fill:#9db3dd" d="M 128 60L 128 63.2L 128.8 63.2C 128.661 61.8519 128.546 61.2048 128 60z"/>
<path style="stroke:none; fill:#b5c5e6" d="M 140.8 60L 140.8 62.4L 141.6 62.4C 141.399 61.2387 141.348 60.9987 140.8 60z"/>
<path style="stroke:none; fill:#5e83c6" d="M 177.6 60L 177.6 60.8C 179.438 61.3389 179.819 61.5722 180.8 63.2L 181.6 63.2L 181.6 60L 177.6 60z"/>
<path style="stroke:none; fill:#839fd4" d="M 36 60.8L 36.8 61.6L 36 60.8z"/>
<path style="stroke:none; fill:#b5c5e6" d="M 106.934 61.0666C 106.578 61.4222 107.422 61.3778 107.466 61.3334C 107.822 60.9778 106.978 61.0222 106.934 61.0666z"/>
<path style="stroke:none; fill:#d6deea" d="M 113.6 60.8L 113.6 62.4C 114.908 61.9639 114.764 62.1081 115.2 60.8L 113.6 60.8z"/>
<path style="stroke:none; fill:#8da6d2" d="M 115.2 60.8L 115.2 61.6L 117.6 61.6C 116.602 61.0522 116.362 61.001 115.2 60.8z"/>
<path style="stroke:none; fill:#6c8fcc" d="M 155.2 60.8L 156 61.6L 155.2 60.8z"/>
<path style="stroke:none; fill:#8da6d2" d="M 168 60.8L 168 61.6L 170.4 61.6C 169.402 61.0522 169.162 61.001 168 60.8z"/>
<path style="stroke:none; fill:#acb8d2" d="M 197.866 61.3334C 197.822 61.3778 197.778 62.2222 198.134 61.8666C 198.178 61.8222 198.222 60.9778 197.866 61.3334z"/>
<path style="stroke:none; fill:#6c8fcc" d="M 28 61.6L 28.8 62.4L 28 61.6z"/>
<path style="stroke:none; fill:#5079c5" d="M 36.8 61.6L 37.6 62.4L 36.8 61.6z"/>
<path style="stroke:none; fill:#9db3dd" d="M 37.6 61.6L 38.4 62.4L 37.6 61.6z"/>
<path style="stroke:none; fill:#839fd4" d="M 52 61.6L 52.8 62.4L 52 61.6z"/>
<path style="stroke:none; fill:#acb8d2" d="M 104.8 61.6L 105.6 62.4L 104.8 61.6z"/>
<path style="stroke:none; fill:#3968bb" d="M 105.6 61.6L 105.6 62.4L 108 62.4C 107.002 61.8522 106.762 61.801 105.6 61.6z"/>
<path style="stroke:none; fill:#8da6d2" d="M 108 61.6L 108.8 62.4L 108 61.6z"/>
<path style="stroke:none; fill:#839fd4" d="M 114.4 61.6L 115.2 62.4L 114.4 61.6z"/>
<path style="stroke:none; fill:#2c5fb8" d="M 115.2 61.6L 115.2 62.4L 117.6 63.2C 116.816 61.7733 116.874 61.9246 115.2 61.6z"/>
<path style="stroke:none; fill:#5176b9" d="M 147.2 61.6L 147.2 64L 148 64C 147.799 62.8387 147.748 62.5987 147.2 61.6z"/>
<path style="stroke:none; fill:#5e83c6" d="M 150.4 61.6L 151.2 62.4L 150.4 61.6z"/>
<path style="stroke:none; fill:#5176b9" d="M 153.6 61.6L 154.4 62.4L 153.6 61.6z"/>
<path style="stroke:none; fill:#8da6d2" d="M 154.4 61.6L 155.2 62.4L 154.4 61.6z"/>
<path style="stroke:none; fill:#d6deea" d="M 167.466 62.1334C 167.422 62.1778 167.378 63.0222 167.734 62.6666C 167.778 62.6222 167.822 61.7778 167.466 62.1334z"/>
<path style="stroke:none; fill:#2c5fb8" d="M 168 61.6L 168 62.4C 169.649 63.9904 170.063 64.9257 170.4 67.2L 171.2 67.2C 171.042 64.3447 170.83 62.5946 168 61.6z"/>
<path style="stroke:none; fill:#5e83c6" d="M 228.8 61.6L 228.8 64L 229.6 64C 229.399 62.8386 229.348 62.5987 228.8 61.6M 272 61.6L 271.2 66.4L 272 66.4C 272.31 64.5853 272.541 63.3308 272 61.6z"/>
<path style="stroke:none; fill:#0642ac" d="M 272.8 61.6C 271.462 67.4518 261.945 86.9552 270.4 88.8C 273.308 80.9 277.074 69.6392 272.8 61.6z"/>
<path style="stroke:none; fill:#8da6d2" d="M 273.866 62.1334C 273.822 62.1778 273.778 63.0222 274.134 62.6666C 274.178 62.6222 274.222 61.7778 273.866 62.1334M 38.9334 62.6666C 38.5778 63.0222 39.4222 62.9778 39.4666 62.9334C 39.8222 62.5778 38.9778 62.6222 38.9334 62.6666M 51.4666 62.9334C 51.4222 62.9778 51.3778 63.8222 51.7334 63.4666C 51.7778 63.4222 51.8222 62.5778 51.4666 62.9334z"/>
<path style="stroke:none; fill:#2c5fb8" d="M 52.2666 62.9334C 52.2222 62.9778 52.1778 63.8222 52.5334 63.4666C 52.5778 63.4222 52.6222 62.5778 52.2666 62.9334z"/>
<path style="stroke:none; fill:#b5c5e6" d="M 104 62.4C 103.55 63.8404 103.341 64.8974 103.2 66.4L 104 66.4C 104.13 64.9712 104.228 63.7935 104 62.4z"/>
<path style="stroke:none; fill:#0642ac" d="M 104.8 62.4C 104.977 65.1828 105.843 67.6879 106.4 70.4L 107.2 70.4C 107.964 68.9862 108.453 68.3141 109.6 67.2C 108.588 72.6497 107.434 78.1713 114.4 78.4C 112.986 73.7436 113.791 70.3131 114.4 65.6L 108.8 65.6L 108.8 62.4L 104.8 62.4z"/>
<path style="stroke:none; fill:#cdd9ec" d="M 108.8 62.4C 109.186 64.2912 109.309 64.414 111.2 64.8L 111.2 64L 108.8 62.4z"/>
<path style="stroke:none; fill:#b5c5e6" d="M 114.4 62.4L 115.2 63.2L 114.4 62.4z"/>
<path style="stroke:none; fill:#5e83c6" d="M 115.734 62.6666C 115.378 63.0222 116.222 62.9778 116.266 62.9334C 116.622 62.5778 115.778 62.6222 115.734 62.6666z"/>
<path style="stroke:none; fill:#8da6d2" d="M 140.8 62.4L 140.8 64.8L 141.6 64.8C 141.399 63.6387 141.348 63.3987 140.8 62.4z"/>
<path style="stroke:none; fill:#839fd4" d="M 151.2 62.4L 151.2 63.2L 153.6 63.2C 152.602 62.6522 152.362 62.601 151.2 62.4z"/>
<path style="stroke:none; fill:#5e83c6" d="M 168.534 62.6666C 168.178 63.0222 169.022 62.9778 169.066 62.9334C 169.422 62.5778 168.578 62.6222 168.534 62.6666z"/>
<path style="stroke:none; fill:#6c8fcc" d="M 245.6 62.4L 246.4 63.2L 245.6 62.4z"/>
<path style="stroke:none; fill:#8da6d2" d="M 28.8 63.2L 29.6 64L 28.8 63.2z"/>
<path style="stroke:none; fill:#839fd4" d="M 40.5334 63.4666C 40.1778 63.8222 41.0222 63.7778 41.0666 63.7334C 41.4222 63.3778 40.5778 63.4222 40.5334 63.4666z"/>
<path style="stroke:none; fill:#9db3dd" d="M 59.2 63.2L 60 64L 59.2 63.2z"/>
<path style="stroke:none; fill:#8da6d2" d="M 63.2 63.2L 63.2 64L 68 64C 66.3583 63.3006 65.0022 63.2378 63.2 63.2z"/>
<path style="stroke:none; fill:#d6deea" d="M 94.4 63.2L 94.4 64L 98.4 64C 96.9848 63.3769 95.9712 63.2701 94.4 63.2z"/>
<path style="stroke:none; fill:#3968bb" d="M 104 63.2L 104 66.4L 104.8 66.4C 104.661 65.0518 104.546 64.4049 104 63.2z"/>
<path style="stroke:none; fill:#b5c5e6" d="M 117.066 63.7334C 117.022 63.7778 116.978 64.6222 117.334 64.2666C 117.378 64.2222 117.422 63.3778 117.066 63.7334z"/>
<path style="stroke:none; fill:#2c5fb8" d="M 124 63.2L 124 64L 127.2 64C 125.995 63.4536 125.348 63.3393 124 63.2z"/>
<path style="stroke:none; fill:#8da6d2" d="M 127.2 63.2L 128 64L 127.2 63.2z"/>
<path style="stroke:none; fill:#d6deea" d="M 140 63.2C 139.022 64.1562 138.864 64.2531 137.6 64.8L 137.6 65.6C 139.478 65.3646 140.761 65.2053 140 63.2z"/>
<path style="stroke:none; fill:#b5c5e6" d="M 163.2 63.2L 163.2 64L 166.4 64C 165.195 63.4536 164.548 63.3393 163.2 63.2z"/>
<path style="stroke:none; fill:#d6deea" d="M 169.6 63.2C 169.089 67.2419 168.8 71.1194 168.8 75.2L 169.6 75.2C 169.602 71.428 170.957 66.6758 169.6 63.2z"/>
<path style="stroke:none; fill:#2c5fb8" d="M 176.8 63.2L 176.8 64L 180 64C 178.795 63.4536 178.148 63.3393 176.8 63.2z"/>
<path style="stroke:none; fill:#6c8fcc" d="M 180 63.2L 180.8 64L 180 63.2z"/>
<path style="stroke:none; fill:#2c5fb8" d="M 229.6 63.2L 229.6 65.6L 230.4 65.6C 230.199 64.4387 230.148 64.1987 229.6 63.2z"/>
<path style="stroke:none; fill:#6c8fcc" d="M 244.8 63.2L 245.6 64L 244.8 63.2z"/>
<path style="stroke:none; fill:#5176b9" d="M 273.866 63.7334C 273.822 63.7778 273.778 64.6222 274.134 64.2666C 274.178 64.2222 274.222 63.3778 273.866 63.7334z"/>
<path style="stroke:none; fill:#839fd4" d="M 29.6 64L 30.4 64.8L 29.6 64z"/>
<path style="stroke:none; fill:#6c8fcc" d="M 42.1334 64.2666C 41.7778 64.6222 42.6222 64.5778 42.6666 64.5334C 43.0222 64.1778 42.1778 64.2222 42.1334 64.2666z"/>
<path style="stroke:none; fill:#cdd9ec" d="M 43.7334 64.2666C 43.3778 64.6222 44.2222 64.5778 44.2666 64.5334C 44.6222 64.1778 43.7778 64.2222 43.7334 64.2666z"/>
<path style="stroke:none; fill:#6c8fcc" d="M 52.5334 64.2666C 52.1778 64.6222 53.0222 64.5778 53.0666 64.5334C 53.4222 64.1778 52.5778 64.2222 52.5334 64.2666z"/>
<path style="stroke:none; fill:#2c5fb8" d="M 53.6 64L 53.6 64.8L 58.4 64.8C 56.7583 64.1006 55.4022 64.0378 53.6 64z"/>
<path style="stroke:none; fill:#9db3dd" d="M 58.4 64L 59.2 64.8L 58.4 64M 61.6 64L 61.6 66.4L 62.4 66.4L 63.2 64L 61.6 64z"/>
<path style="stroke:none; fill:#2c5fb8" d="M 62.4 78.4L 63.2 78.4L 63.2 64.8L 68 64.8C 60.3495 61.7025 62.4 74.0485 62.4 78.4z"/>
<path style="stroke:none; fill:#acb8d2" d="M 68 64L 68.8 64.8L 68 64z"/>
<path style="stroke:none; fill:#b5c5e6" d="M 72.8 64L 72.8 64.8L 76 64.8C 74.7951 64.2536 74.1482 64.1393 72.8 64M 81.6 64L 81.6 64.8L 84.8 64.8C 83.5952 64.2536 82.948 64.1393 81.6 64z"/>
<path style="stroke:none; fill:#8da6d2" d="M 93.3336 64.2666C 92.9776 64.6222 93.8224 64.5778 93.8664 64.5334C 94.2224 64.1778 93.3776 64.2222 93.3336 64.2666z"/>
<path style="stroke:none; fill:#6c8fcc" d="M 94.4 64L 94.4 64.8C 96.0144 65.0721 96.7744 65.0586 98.4 64.8C 96.9848 64.1769 95.9712 64.0701 94.4 64z"/>
<path style="stroke:none; fill:#b5c5e6" d="M 98.9336 64.2666C 98.5776 64.6222 99.4224 64.5778 99.4664 64.5334C 99.8224 64.1778 98.9776 64.2222 98.9336 64.2666z"/>
<path style="stroke:none; fill:#acb8d2" d="M 111.2 64L 111.2 64.8L 115.2 64.8C 113.785 64.1769 112.771 64.0701 111.2 64z"/>
<path style="stroke:none; fill:#5176b9" d="M 123.2 64L 124 64.8L 123.2 64z"/>
<path style="stroke:none; fill:#9db3dd" d="M 124 64L 124 64.8L 127.2 64.8C 125.995 64.2536 125.348 64.1393 124 64z"/>
<path style="stroke:none; fill:#cdd9ec" d="M 147.466 64.5334C 147.422 64.5778 147.378 65.4222 147.734 65.0666C 147.778 65.0222 147.822 64.1778 147.466 64.5334z"/>
<path style="stroke:none; fill:#9db3dd" d="M 161.334 64.2666C 160.978 64.6222 161.822 64.5778 161.866 64.5334C 162.222 64.1778 161.378 64.2222 161.334 64.2666z"/>
<path style="stroke:none; fill:#5176b9" d="M 162.4 64C 163.116 65.6334 163.629 67.0622 164 68.8L 164.8 68.8C 165.042 66.9646 165.262 66.2308 166.4 64.8C 164.985 64.1769 163.971 64.0701 162.4 64z"/>
<path style="stroke:none; fill:#839fd4" d="M 166.4 64L 167.2 64.8L 166.4 64z"/>
<path style="stroke:none; fill:#9db3dd" d="M 176.8 64L 176.8 64.8L 180 64.8C 178.795 64.2536 178.148 64.1393 176.8 64z"/>
<path style="stroke:none; fill:#cdd9ec" d="M 196.8 64L 196.8 66.4L 197.6 66.4C 197.399 65.2387 197.348 64.9987 196.8 64z"/>
<path style="stroke:none; fill:#9db3dd" d="M 229.066 64.5334C 229.022 64.5778 228.978 65.4222 229.334 65.0666C 229.378 65.0222 229.422 64.1778 229.066 64.5334z"/>
<path style="stroke:none; fill:#5e83c6" d="M 244 64L 244.8 64.8L 244 64z"/>
<path style="stroke:none; fill:#839fd4" d="M 30.4 64.8L 31.2 65.6L 30.4 64.8z"/>
<path style="stroke:none; fill:#8da6d2" d="M 44.5334 65.0666C 44.1778 65.4222 45.0222 65.3778 45.0666 65.3334C 45.4222 64.9778 44.5778 65.0222 44.5334 65.0666z"/>
<path style="stroke:none; fill:#d6deea" d="M 46.1334 65.0666C 45.7778 65.4222 46.6222 65.3778 46.6666 65.3334C 47.0222 64.9778 46.1778 65.0222 46.1334 65.0666z"/>
<path style="stroke:none; fill:#b5c5e6" d="M 53.3334 65.0666C 52.9778 65.4222 53.8222 65.3778 53.8666 65.3334C 54.2222 64.9778 53.3778 65.0222 53.3334 65.0666z"/>
<path style="stroke:none; fill:#8da6d2" d="M 54.4 64.8L 54.4 65.6L 58.4 65.6C 56.9848 64.9769 55.9713 64.8701 54.4 64.8z"/>
<path style="stroke:none; fill:#0642ac" d="M 63.2 64.8L 63.2 78.4L 66.4 78.4C 67.0615 73.5902 69.0719 69.7567 68.8 64.8L 63.2 64.8z"/>
<path style="stroke:none; fill:#6c8fcc" d="M 71.2 66.4L 73.6 65.6C 72.187 65.2793 72.3541 65.3686 71.2 66.4z"/>
<path style="stroke:none; fill:#3968bb" d="M 73.6 64.8L 73.6 65.6L 76 65.6C 75.0014 65.0522 74.7613 65.001 73.6 64.8z"/>
<path style="stroke:none; fill:#839fd4" d="M 76 64.8L 76.8 65.6L 76 64.8z"/>
<path style="stroke:none; fill:#5e83c6" d="M 80 66.4L 82.4 65.6C 80.9872 65.2793 81.1544 65.3686 80 66.4z"/>
<path style="stroke:none; fill:#3968bb" d="M 82.4 64.8L 82.4 65.6L 84.8 65.6C 83.8016 65.0522 83.5616 65.001 82.4 64.8z"/>
<path style="stroke:none; fill:#6c8fcc" d="M 84.8 64.8L 85.6 65.6L 84.8 64.8z"/>
<path style="stroke:none; fill:#b5c5e6" d="M 91.2 64.8L 92 65.6L 91.2 64.8z"/>
<path style="stroke:none; fill:#2c5fb8" d="M 92 64.8L 92 65.6C 93.3488 65.7746 93.8528 65.7791 95.2 65.6C 93.9952 65.0536 93.348 64.9393 92 64.8z"/>
<path style="stroke:none; fill:#0642ac" d="M 96.8 64.8L 96 69.6C 101.116 69.432 102.478 65.7057 96.8 64.8z"/>
<path style="stroke:none; fill:#8da6d2" d="M 100 64.8L 100.8 65.6L 100 64.8z"/>
<path style="stroke:none; fill:#5e83c6" d="M 108.8 64.8L 108.8 65.6L 111.2 65.6C 110.202 65.0522 109.962 65.001 108.8 64.8z"/>
<path style="stroke:none; fill:#2c5fb8" d="M 111.2 64.8L 111.2 65.6L 114.4 65.6C 113.195 65.0536 112.548 64.9393 111.2 64.8z"/>
<path style="stroke:none; fill:#5e83c6" d="M 114.4 64.8L 114.4 68L 115.2 68C 115.061 66.6518 114.946 66.0048 114.4 64.8z"/>
<path style="stroke:none; fill:#d6deea" d="M 115.2 64.8C 115.341 66.3025 115.55 67.3596 116 68.8L 116.8 68.8C 116.558 66.9646 116.338 66.2308 115.2 64.8z"/>
<path style="stroke:none; fill:#839fd4" d="M 116.8 64.8L 116.8 68.8L 117.6 68.8C 117.53 67.2287 117.423 66.2153 116.8 64.8z"/>
<path style="stroke:none; fill:#acb8d2" d="M 123.466 65.3334C 123.422 65.3778 123.378 66.2222 123.734 65.8666C 123.778 65.8222 123.822 64.9778 123.466 65.3334z"/>
<path style="stroke:none; fill:#2c5fb8" d="M 140.8 64.8L 139.2 66.4L 140.8 68.8L 141.6 68.8C 141.53 67.2288 141.423 66.2152 140.8 64.8z"/>
<path style="stroke:none; fill:#9db3dd" d="M 150.4 64.8L 150.4 65.6L 153.6 65.6C 152.395 65.0536 151.748 64.9393 150.4 64.8z"/>
<path style="stroke:none; fill:#8da6d2" d="M 160 64.8L 160.8 65.6L 160 64.8z"/>
<path style="stroke:none; fill:#0642ac" d="M 166.4 78.4L 166.4 77.6C 163.917 76.4143 162.786 75.2833 161.6 72.8C 166.067 72.3007 171.108 66.894 164.8 64.8C 164.37 68.017 163.284 69.9206 160.8 72C 161.257 69.4337 162.218 67.209 163.2 64.8C 152.377 67.8486 156.796 78.3926 166.4 78.4z"/>
<path style="stroke:none; fill:#6c8fcc" d="M 167.2 64.8L 168 65.6L 167.2 64.8z"/>
<path style="stroke:none; fill:#748dba" d="M 176.266 65.3334C 176.222 65.3778 176.178 66.2222 176.534 65.8666C 176.578 65.8222 176.622 64.9778 176.266 65.3334z"/>
<path style="stroke:none; fill:#5079c5" d="M 243.2 64.8L 244 65.6L 243.2 64.8z"/>
<path style="stroke:none; fill:#839fd4" d="M 31.2 65.6L 32 66.4L 31.2 65.6z"/>
<path style="stroke:none; fill:#6c8fcc" d="M 46.1334 65.8666C 45.7778 66.2222 46.6222 66.1778 46.6666 66.1334C 47.0222 65.7778 46.1778 65.8222 46.1334 65.8666z"/>
<path style="stroke:none; fill:#cdd9ec" d="M 47.7334 65.8666C 47.3778 66.2222 48.2222 66.1778 48.2666 66.1334C 48.6222 65.7778 47.7778 65.8222 47.7334 65.8666z"/>
<path style="stroke:none; fill:#9db3dd" d="M 68.8 65.6L 68.8 68L 69.6 68C 69.399 66.8387 69.3478 66.5986 68.8 65.6z"/>
<path style="stroke:none; fill:#0642ac" d="M 72 65.6L 71.2 78.4L 76 78.4C 76.103 74.0014 77.1108 70.0413 76.8 65.6L 72 65.6z"/>
<path style="stroke:none; fill:#6c8fcc" d="M 76.8 65.6C 77.0454 67.2982 77.1057 67.7488 78.4 68.8C 77.923 67.5518 77.5291 66.7013 76.8 65.6z"/>
<path style="stroke:none; fill:#0642ac" d="M 80 66.4C 81.832 71.1374 77.5943 77.8254 84.8 78.4L 85.6 65.6C 83.5776 65.6415 81.9344 65.8221 80 66.4z"/>
<path style="stroke:none; fill:#5e83c6" d="M 85.6 65.6L 85.6 69.6L 86.4 69.6C 86.3296 68.0287 86.2232 67.0152 85.6 65.6z"/>
<path style="stroke:none; fill:#d6deea" d="M 86.4 65.6L 86.4 68.8L 87.2 68.8C 87.0608 67.4518 86.9464 66.8048 86.4 65.6z"/>
<path style="stroke:none; fill:#8da6d2" d="M 90.4 65.6L 91.2 66.4L 90.4 65.6z"/>
<path style="stroke:none; fill:#0642ac" d="M 93.6 77.6C 91.0328 72.8611 92.5536 70.501 93.6 65.6C 86.6952 67.5598 84.3984 80.0296 93.6 77.6z"/>
<path style="stroke:none; fill:#9db3dd" d="M 94.4 65.6L 95.2 66.4L 94.4 65.6z"/>
<path style="stroke:none; fill:#ffffff" d="M 92.8 76L 93.6 76C 95.0768 72.6482 95.8984 69.1429 96.8 65.6C 92.8248 67.7706 92.8344 71.837 92.8 76z"/>
<path style="stroke:none; fill:#5079c5" d="M 97.0664 66.1334C 97.0224 66.1778 96.9776 67.0222 97.3336 66.6666C 97.3776 66.6222 97.4224 65.7778 97.0664 66.1334z"/>
<path style="stroke:none; fill:#8da6d2" d="M 100.8 65.6L 101.6 66.4L 100.8 65.6z"/>
<path style="stroke:none; fill:#9db3dd" d="M 136.534 65.8666C 136.178 66.2222 137.022 66.1778 137.066 66.1334C 137.422 65.7778 136.578 65.8222 136.534 65.8666z"/>
<path style="stroke:none; fill:#5e83c6" d="M 137.6 65.6L 137.6 66.4L 140 66.4C 139.002 65.8522 138.762 65.801 137.6 65.6z"/>
<path style="stroke:none; fill:#748dba" d="M 146.666 66.1334C 146.622 66.1778 146.578 67.0222 146.934 66.6666C 146.978 66.6222 147.022 65.7778 146.666 66.1334z"/>
<path style="stroke:none; fill:#8da6d2" d="M 149.6 65.6L 150.4 66.4L 149.6 65.6z"/>
<path style="stroke:none; fill:#2c5fb8" d="M 150.4 65.6L 150.4 66.4C 152.238 66.9388 152.619 67.1722 153.6 68.8L 154.4 68.8L 154.4 65.6L 150.4 65.6z"/>
<path style="stroke:none; fill:#b5c5e6" d="M 154.4 65.6L 155.2 66.4L 154.4 65.6M 158.4 65.6L 157.6 67.2C 158.61 66.423 158.714 66.645 158.4 65.6z"/>
<path style="stroke:none; fill:#5e83c6" d="M 159.2 65.6L 160 66.4L 159.2 65.6z"/>
<path style="stroke:none; fill:#6c8fcc" d="M 162.4 65.6L 163.2 66.4L 162.4 65.6z"/>
<path style="stroke:none; fill:#d6deea" d="M 163.2 65.6C 162.254 67.5438 161.816 69.0502 161.6 71.2L 162.4 71.2C 163.262 69.1453 163.839 67.7374 163.2 65.6z"/>
<path style="stroke:none; fill:#5e83c6" d="M 168 65.6L 168 69.6L 168.8 69.6C 168.73 68.0287 168.623 67.0152 168 65.6M 229.6 65.6L 229.6 68L 230.4 68C 230.199 66.8387 230.148 66.5987 229.6 65.6z"/>
<path style="stroke:none; fill:#5176b9" d="M 242.4 65.6L 243.2 66.4L 242.4 65.6z"/>
<path style="stroke:none; fill:#b5c5e6" d="M 274.666 66.1334C 274.622 66.1777 274.578 67.0222 274.934 66.6666C 274.978 66.6222 275.022 65.7778 274.666 66.1334z"/>
<path style="stroke:none; fill:#9db3dd" d="M 32 66.4L 32.8 67.2L 32 66.4z"/>
<path style="stroke:none; fill:#5176b9" d="M 48 66.4L 48.8 67.2L 48 66.4z"/>
<path style="stroke:none; fill:#b5c5e6" d="M 49.3334 66.6666C 48.9778 67.0222 49.8222 66.9778 49.8666 66.9334C 50.2222 66.5778 49.3778 66.6222 49.3334 66.6666z"/>
<path style="stroke:none; fill:#acb8d2" d="M 61.6 66.4L 61.6 69.6L 62.4 69.6C 62.2607 68.2518 62.1464 67.6048 61.6 66.4z"/>
<path style="stroke:none; fill:#3968bb" d="M 68.8 68.8C 70.1788 68.4912 70.831 68.2003 72 68.8L 72.8 68.8C 72.8 67.3626 72.7886 67.5828 72 66.4C 70.4412 67.1486 69.9598 67.5139 68.8 68.8z"/>
<path style="stroke:none; fill:#b5c5e6" d="M 78.4 66.4L 77.6 68C 78.6102 67.223 78.7135 67.445 78.4 66.4z"/>
<path style="stroke:none; fill:#3968bb" d="M 79.2 66.4L 76.8 69.6L 77.6 70.4C 79.0352 69.4777 79.9278 69.0908 81.6 68.8C 80.8784 67.262 80.7392 67.201 79.2 66.4z"/>
<path style="stroke:none; fill:#839fd4" d="M 89.6 66.4L 90.4 67.2L 89.6 66.4M 93.6 66.4L 94.4 67.2L 93.6 66.4z"/>
<path style="stroke:none; fill:#9db3dd" d="M 101.6 66.4L 101.6 68.8L 102.4 68.8C 102.199 67.6388 102.148 67.3986 101.6 66.4z"/>
<path style="stroke:none; fill:#6c8fcc" d="M 104.8 66.4L 105.6 67.2L 104.8 66.4z"/>
<path style="stroke:none; fill:#3968bb" d="M 122.4 66.4L 122.4 68.8L 123.2 68.8C 122.999 67.6387 122.948 67.3987 122.4 66.4z"/>
<path style="stroke:none; fill:#839fd4" d="M 135.2 66.4L 136 67.2L 135.2 66.4z"/>
<path style="stroke:none; fill:#0642ac" d="M 138.4 77.6C 135.397 73.3714 137.614 70.7682 139.2 66.4C 131.07 67.313 129.159 80.2464 138.4 77.6z"/>
<path style="stroke:none; fill:#839fd4" d="M 148.8 66.4L 149.6 67.2L 148.8 66.4z"/>
<path style="stroke:none; fill:#0642ac" d="M 156 77.6L 156 76.8C 152.349 73.7491 153.414 70.7268 153.6 66.4C 145.89 67.0007 147.26 79.5792 156 77.6z"/>
<path style="stroke:none; fill:#8da6d2" d="M 154.4 66.4L 154.4 68.8L 155.2 68.8C 154.999 67.6387 154.948 67.3987 154.4 66.4z"/>
<path style="stroke:none; fill:#5079c5" d="M 158.4 66.4L 159.2 67.2L 158.4 66.4z"/>
<path style="stroke:none; fill:#acb8d2" d="M 176.266 66.9334C 176.222 66.9778 176.178 67.8222 176.534 67.4666C 176.578 67.4222 176.622 66.5778 176.266 66.9334z"/>
<path style="stroke:none; fill:#839fd4" d="M 196.8 66.4L 196.8 75.2L 197.6 75.2C 197.6 72.2398 197.952 69.146 196.8 66.4z"/>
<path style="stroke:none; fill:#3968bb" d="M 241.6 66.4L 242.4 67.2L 241.6 66.4z"/>
<path style="stroke:none; fill:#b5c5e6" d="M 32.8 67.2L 33.6 68L 32.8 67.2z"/>
<path style="stroke:none; fill:#839fd4" d="M 50.4 67.2L 51.2 68L 50.4 67.2M 71.2 67.2L 72 68L 71.2 67.2M 88.8 67.2L 89.6 68L 88.8 67.2z"/>
<path style="stroke:none; fill:#acb8d2" d="M 96 67.2L 96.8 68L 96 67.2z"/>
<path style="stroke:none; fill:#8da6d2" d="M 105.866 67.7334C 105.822 67.7778 105.778 68.6222 106.134 68.2666C 106.178 68.2222 106.222 67.3778 105.866 67.7334z"/>
<path style="stroke:none; fill:#5e83c6" d="M 108 67.2L 108.8 69.6L 109.6 69.6L 109.6 67.2L 108 67.2z"/>
<path style="stroke:none; fill:#b5c5e6" d="M 133.6 67.2L 134.4 68L 133.6 67.2z"/>
<path style="stroke:none; fill:#8da6d2" d="M 139.2 67.2L 140 69.6L 140.8 69.6L 140.8 67.2L 139.2 67.2z"/>
<path style="stroke:none; fill:#cdd9ec" d="M 146.666 67.7334C 146.622 67.7778 146.578 68.6222 146.934 68.2666C 146.978 68.2222 147.022 67.3778 146.666 67.7334z"/>
<path style="stroke:none; fill:#5176b9" d="M 157.6 67.2L 158.4 68L 157.6 67.2z"/>
<path style="stroke:none; fill:#5e83c6" d="M 161.6 67.2L 162.4 68L 161.6 67.2z"/>
<path style="stroke:none; fill:#acb8d2" d="M 169.866 67.7334C 169.822 67.7778 169.778 68.6222 170.134 68.2666C 170.178 68.2222 170.222 67.3778 169.866 67.7334M 221.066 67.7334C 221.022 67.7778 220.978 68.6222 221.334 68.2666C 221.378 68.2222 221.422 67.3778 221.066 67.7334z"/>
<path style="stroke:none; fill:#748dba" d="M 274.4 67.2L 274.4 73.6L 275.2 73.6C 275.194 71.3316 275.278 69.2902 274.4 67.2z"/>
<path style="stroke:none; fill:#d6deea" d="M 27.2 68L 27.2 68.8L 31.2 68.8C 29.7848 68.1769 28.7713 68.0701 27.2 68z"/>
<path style="stroke:none; fill:#8da6d2" d="M 34.4 68L 35.2 68.8L 34.4 68z"/>
<path style="stroke:none; fill:#748dba" d="M 52 68L 52.8 68.8L 52 68z"/>
<path style="stroke:none; fill:#9db3dd" d="M 88 68L 88.8 68.8L 88 68z"/>
<path style="stroke:none; fill:#748dba" d="M 92.8 68L 93.6 68.8L 92.8 68z"/>
<path style="stroke:none; fill:#839fd4" d="M 95.4664 68.5334C 95.4224 68.5778 95.3776 69.4222 95.7336 69.0666C 95.7776 69.0222 95.8224 68.1778 95.4664 68.5334z"/>
<path style="stroke:none; fill:#ffffff" d="M 108 68L 108 70.4L 108.8 70.4C 108.599 69.2387 108.548 68.9987 108 68z"/>
<path style="stroke:none; fill:#2c5fb8" d="M 113.6 68L 113.6 70.4L 114.4 70.4C 114.199 69.2387 114.148 68.9987 113.6 68z"/>
<path style="stroke:none; fill:#acb8d2" d="M 114.4 68L 114.4 70.4L 115.2 70.4C 114.999 69.2387 114.948 68.9987 114.4 68z"/>
<path style="stroke:none; fill:#ffffff" d="M 115.2 68C 114.7 70.6906 114.422 73.2626 114.4 76L 116 76C 116 73.2685 116.262 70.5306 115.2 68z"/>
<path style="stroke:none; fill:#b5c5e6" d="M 132.8 68L 133.6 68.8L 132.8 68z"/>
<path style="stroke:none; fill:#acb8d2" d="M 138.4 68L 139.2 68.8L 138.4 68z"/>
<path style="stroke:none; fill:#ffffff" d="M 139.2 68C 137.757 70.7042 137.61 72.9594 137.6 76L 138.4 76C 139.048 73.3678 139.833 70.6462 139.2 68z"/>
<path style="stroke:none; fill:#5e83c6" d="M 148.266 68.5334C 148.222 68.5778 148.178 69.4222 148.534 69.0666C 148.578 69.0222 148.622 68.1778 148.266 68.5334z"/>
<path style="stroke:none; fill:#748dba" d="M 156.8 68L 157.6 68.8L 156.8 68z"/>
<path style="stroke:none; fill:#6c8fcc" d="M 163.466 68.5334C 163.422 68.5778 163.378 69.4222 163.734 69.0666C 163.778 69.0222 163.822 68.1778 163.466 68.5334z"/>
<path style="stroke:none; fill:#5176b9" d="M 175.2 68L 175.2 70.4L 176 70.4C 175.799 69.2387 175.748 68.9986 175.2 68z"/>
<path style="stroke:none; fill:#cdd9ec" d="M 176 68L 176 70.4L 176.8 70.4C 176.599 69.2387 176.548 68.9987 176 68z"/>
<path style="stroke:none; fill:#9db3dd" d="M 229.866 68.5334C 229.822 68.5778 229.778 69.4222 230.134 69.0666C 230.178 69.0222 230.222 68.1778 229.866 68.5334z"/>
<path style="stroke:none; fill:#3968bb" d="M 230.4 68L 230.4 70.4L 231.2 70.4C 230.999 69.2388 230.948 68.9986 230.4 68z"/>
<path style="stroke:none; fill:#acb8d2" d="M 26.9334 69.0666C 26.5778 69.4222 27.4222 69.3778 27.4666 69.3334C 27.8222 68.9778 26.9778 69.0222 26.9334 69.0666z"/>
<path style="stroke:none; fill:#748dba" d="M 28 68.8L 28 69.6L 31.2 69.6C 29.9952 69.0536 29.3482 68.9393 28 68.8z"/>
<path style="stroke:none; fill:#b5c5e6" d="M 31.7334 69.0666C 31.3778 69.4222 32.2222 69.3778 32.2666 69.3334C 32.6222 68.9778 31.7778 69.0222 31.7334 69.0666z"/>
<path style="stroke:none; fill:#839fd4" d="M 36 68.8L 36.8 69.6L 36 68.8M 53.6 68.8L 54.4 69.6L 53.6 68.8z"/>
<path style="stroke:none; fill:#9db3dd" d="M 69.6 68.8L 70.4 69.6L 69.6 68.8z"/>
<path style="stroke:none; fill:#6c8fcc" d="M 71.4666 69.3334C 71.4222 69.3778 71.3778 70.2222 71.7334 69.8666C 71.7778 69.8222 71.8222 68.9778 71.4666 69.3334z"/>
<path style="stroke:none; fill:#8da6d2" d="M 78.4 68.8L 79.2 69.6L 78.4 68.8z"/>
<path style="stroke:none; fill:#5079c5" d="M 92.2664 69.3334C 92.2224 69.3778 92.1776 70.2222 92.5336 69.8666C 92.5776 69.8222 92.6224 68.9778 92.2664 69.3334z"/>
<path style="stroke:none; fill:#d6deea" d="M 93.0664 69.3334C 93.0224 69.3778 92.9776 70.2222 93.3336 69.8666C 93.3776 69.8222 93.4224 68.9778 93.0664 69.3334z"/>
<path style="stroke:none; fill:#839fd4" d="M 100.8 68.8L 101.6 69.6L 100.8 68.8z"/>
<path style="stroke:none; fill:#d6deea" d="M 104.8 68.8L 104.8 71.2L 105.6 71.2C 105.399 70.0388 105.348 69.7986 104.8 68.8z"/>
<path style="stroke:none; fill:#3968bb" d="M 105.6 68.8L 104.8 74.4L 105.6 74.4C 106.449 72.1446 106.792 70.9117 105.6 68.8z"/>
<path style="stroke:none; fill:#748dba" d="M 107.2 68.8L 108 69.6L 107.2 68.8z"/>
<path style="stroke:none; fill:#cdd9ec" d="M 116 68.8L 116 76L 116.8 76C 116.798 73.4993 116.97 71.1118 116 68.8z"/>
<path style="stroke:none; fill:#3968bb" d="M 116.8 68.8C 116.786 72.5893 116.019 75.027 114.4 78.4C 115.818 77.9474 116.926 77.6576 118.4 77.6C 117.862 74.6982 117.933 71.493 116.8 68.8z"/>
<path style="stroke:none; fill:#acb8d2" d="M 122.4 68.8L 122.4 71.2L 123.2 71.2C 122.999 70.0387 122.948 69.7987 122.4 68.8z"/>
<path style="stroke:none; fill:#5079c5" d="M 132.8 68.8L 133.6 69.6L 132.8 68.8z"/>
<path style="stroke:none; fill:#839fd4" d="M 137.6 68.8L 138.4 69.6L 137.6 68.8z"/>
<path style="stroke:none; fill:#5e83c6" d="M 145.866 69.3334C 145.822 69.3778 145.778 70.2222 146.134 69.8666C 146.178 69.8222 146.222 68.9778 145.866 69.3334z"/>
<path style="stroke:none; fill:#6c8fcc" d="M 153.866 69.3334C 153.822 69.3778 153.778 70.2222 154.134 69.8666C 154.178 69.8222 154.222 68.9778 153.866 69.3334z"/>
<path style="stroke:none; fill:#b5c5e6" d="M 156 68.8L 156.8 69.6L 156 68.8z"/>
<path style="stroke:none; fill:#3968bb" d="M 161.066 69.3334C 161.022 69.3778 160.978 70.2222 161.334 69.8666C 161.378 69.8222 161.422 68.9778 161.066 69.3334z"/>
<path style="stroke:none; fill:#839fd4" d="M 169.6 68.8C 169.579 71.2974 169.379 73.5684 168.8 76L 169.6 76C 170.354 73.4466 170.641 71.2841 169.6 68.8z"/>
<path style="stroke:none; fill:#2c5fb8" d="M 270.4 68.8L 270.4 71.2L 271.2 71.2C 270.999 70.0387 270.948 69.7987 270.4 68.8z"/>
<path style="stroke:none; fill:#acb8d2" d="M 24.8 69.6L 25.6 70.4L 24.8 69.6z"/>
<path style="stroke:none; fill:#2c5fb8" d="M 26.1334 69.8666C 25.7778 70.2222 26.6222 70.1778 26.6666 70.1334C 27.0222 69.7778 26.1778 69.8222 26.1334 69.8666z"/>
<path style="stroke:none; fill:#0642ac" d="M 33.6 88.8C 30.3145 86.58 21.0499 83.1304 23.4302 77.687C 25.0666 73.945 37.529 75.4897 35.1309 71.5315C 33.1146 68.2034 26.6536 69.7066 24.0154 71.2716C 16.6357 75.6493 19.4078 84.6488 26.4006 87.5096C 28.7143 88.456 31.1338 88.6928 33.6 88.8z"/>
<path style="stroke:none; fill:#748dba" d="M 33.6 69.6L 34.4 70.4L 33.6 69.6z"/>
<path style="stroke:none; fill:#839fd4" d="M 37.6 69.6L 38.4 70.4L 37.6 69.6z"/>
<path style="stroke:none; fill:#3968bb" d="M 54.4 69.6L 55.2 70.4L 54.4 69.6z"/>
<path style="stroke:none; fill:#acb8d2" d="M 55.2 69.6L 56 70.4L 55.2 69.6z"/>
<path style="stroke:none; fill:#839fd4" d="M 61.6 69.6L 61.6 77.6L 62.4 77.6C 62.3997 74.8685 62.6619 72.1306 61.6 69.6z"/>
<path style="stroke:none; fill:#5079c5" d="M 68.8 69.6L 69.6 70.4L 68.8 69.6z"/>
<path style="stroke:none; fill:#5e83c6" d="M 80.2664 70.1334C 80.2224 70.1778 80.1776 71.0222 80.5336 70.6666C 80.5776 70.6222 80.6224 69.7778 80.2664 70.1334z"/>
<path style="stroke:none; fill:#cdd9ec" d="M 85.6 69.6L 85.6 72L 87.2 71.2L 87.2 70.4L 85.6 69.6z"/>
<path style="stroke:none; fill:#5176b9" d="M 87.4664 70.1334C 87.4224 70.1778 87.3776 71.0222 87.7336 70.6666C 87.7776 70.6222 87.8224 69.7778 87.4664 70.1334z"/>
<path style="stroke:none; fill:#748dba" d="M 96 69.6L 96 70.4C 97.6256 70.6586 98.3856 70.6721 100 70.4C 98.5848 69.7769 97.5712 69.6701 96 69.6z"/>
<path style="stroke:none; fill:#b5c5e6" d="M 107.2 69.6L 108 70.4L 107.2 69.6z"/>
<path style="stroke:none; fill:#8da6d2" d="M 132 69.6L 132.8 70.4L 132 69.6z"/>
<path style="stroke:none; fill:#d6deea" d="M 139.2 69.6L 139.2 72.8L 140 72.8C 139.861 71.4518 139.746 70.8048 139.2 69.6z"/>
<path style="stroke:none; fill:#5e83c6" d="M 140 69.6L 140 72.8L 140.8 72.8C 140.661 71.4518 140.546 70.8048 140 69.6z"/>
<path style="stroke:none; fill:#2c5fb8" d="M 148 69.6L 148 74.4L 148.8 74.4C 148.762 72.5978 148.699 71.2417 148 69.6z"/>
<path style="stroke:none; fill:#5176b9" d="M 156.266 70.1334C 156.222 70.1778 156.178 71.0222 156.534 70.6666C 156.578 70.6222 156.622 69.7778 156.266 70.1334z"/>
<path style="stroke:none; fill:#b5c5e6" d="M 168 69.6L 168.8 70.4L 168 69.6z"/>
<path style="stroke:none; fill:#acb8d2" d="M 220.266 70.1334C 220.222 70.1778 220.178 71.0222 220.534 70.6666C 220.578 70.6222 220.622 69.7778 220.266 70.1334z"/>
<path style="stroke:none; fill:#6c8fcc" d="M 239.2 69.6L 240 70.4L 239.2 69.6z"/>
<path style="stroke:none; fill:#5e83c6" d="M 269.6 69.6L 269.6 72L 270.4 72C 270.199 70.8387 270.148 70.5987 269.6 69.6z"/>
<path style="stroke:none; fill:#b5c5e6" d="M 23.2 70.4L 24 71.2L 23.2 70.4z"/>
<path style="stroke:none; fill:#5079c5" d="M 24 70.4L 24.8 71.2L 24 70.4z"/>
<path style="stroke:none; fill:#8da6d2" d="M 35.2 70.4L 36 71.2L 35.2 70.4M 39.2 70.4L 40 71.2L 39.2 70.4z"/>
<path style="stroke:none; fill:#839fd4" d="M 56 70.4L 56.8 71.2L 56 70.4z"/>
<path style="stroke:none; fill:#acb8d2" d="M 68.8 70.4L 69.6 71.2L 68.8 70.4z"/>
<path style="stroke:none; fill:#cdd9ec" d="M 77.8666 70.9334C 77.8222 70.9778 77.7778 71.8222 78.1334 71.4666C 78.1778 71.4222 78.2222 70.5778 77.8666 70.9334z"/>
<path style="stroke:none; fill:#839fd4" d="M 92.2664 70.9334C 92.2224 70.9778 92.1776 71.8222 92.5336 71.4666C 92.5776 71.4222 92.6224 70.5778 92.2664 70.9334z"/>
<path style="stroke:none; fill:#5176b9" d="M 95.4664 70.9334C 95.4224 70.9778 95.3776 71.8222 95.7336 71.4666C 95.7776 71.4222 95.8224 70.5778 95.4664 70.9334z"/>
<path style="stroke:none; fill:#0642ac" d="M 96 70.4C 95.2152 74.6158 96.3184 77.2436 100.8 77.6C 100.399 75.4514 100.094 73.3841 100 71.2L 96 70.4z"/>
<path style="stroke:none; fill:#b5c5e6" d="M 108.266 70.9334C 108.222 70.9778 108.178 71.8222 108.534 71.4666C 108.578 71.4222 108.622 70.5778 108.266 70.9334z"/>
<path style="stroke:none; fill:#839fd4" d="M 113.866 70.9334C 113.822 70.9778 113.778 71.8222 114.134 71.4666C 114.178 71.4222 114.222 70.5778 113.866 70.9334z"/>
<path style="stroke:none; fill:#b5c5e6" d="M 131.466 70.9334C 131.422 70.9778 131.378 71.8222 131.734 71.4666C 131.778 71.4222 131.822 70.5778 131.466 70.9334z"/>
<path style="stroke:none; fill:#9db3dd" d="M 137.066 70.9334C 137.022 70.9778 136.978 71.8222 137.334 71.4666C 137.378 71.4222 137.422 70.5778 137.066 70.9334z"/>
<path style="stroke:none; fill:#b5c5e6" d="M 145.866 70.9334C 145.822 70.9778 145.778 71.8222 146.134 71.4666C 146.178 71.4222 146.222 70.5778 145.866 70.9334z"/>
<path style="stroke:none; fill:#cdd9ec" d="M 147.2 70.4L 147.2 73.6L 148 73.6C 147.861 72.2518 147.746 71.6048 147.2 70.4z"/>
<path style="stroke:none; fill:#2c5fb8" d="M 152.8 70.4L 152.8 75.2L 153.6 75.2C 153.562 73.3978 153.499 72.0417 152.8 70.4z"/>
<path style="stroke:none; fill:#acb8d2" d="M 153.6 70.4L 153.6 75.2L 154.4 75.2C 154.362 73.3978 154.299 72.0417 153.6 70.4M 155.2 70.4L 155.2 74.4L 156 74.4C 155.93 72.8287 155.823 71.8152 155.2 70.4z"/>
<path style="stroke:none; fill:#6c8fcc" d="M 160.8 70.4L 160.8 72L 162.4 72C 161.964 70.6918 162.108 70.8361 160.8 70.4z"/>
<path style="stroke:none; fill:#5e83c6" d="M 162.4 70.4L 163.2 71.2L 162.4 70.4z"/>
<path style="stroke:none; fill:#8da6d2" d="M 167.2 70.4L 168 71.2L 167.2 70.4z"/>
<path style="stroke:none; fill:#ffffff" d="M 168 70.4C 166.172 71.7014 164.457 72.7078 162.4 73.6L 162.4 75.2C 164.583 75.8482 166.52 75.9834 168.8 76C 168.785 73.9653 168.788 72.2653 168 70.4z"/>
<path style="stroke:none; fill:#acb8d2" d="M 175.2 70.4L 175.2 72.8L 176 72.8C 175.799 71.6387 175.748 71.3987 175.2 70.4z"/>
<path style="stroke:none; fill:#6c8fcc" d="M 230.4 70.4L 230.4 72.8L 231.2 72.8C 230.999 71.6387 230.948 71.3986 230.4 70.4M 238.4 70.4L 239.2 71.2L 238.4 70.4z"/>
<path style="stroke:none; fill:#8da6d2" d="M 22.4 71.2L 23.2 72L 22.4 71.2z"/>
<path style="stroke:none; fill:#748dba" d="M 36 71.2L 36 73.6L 36.8 73.6C 36.599 72.4387 36.5478 72.1986 36 71.2z"/>
<path style="stroke:none; fill:#acb8d2" d="M 40.8 71.2L 41.6 72L 40.8 71.2z"/>
<path style="stroke:none; fill:#5e83c6" d="M 41.6 71.2L 42.4 72L 41.6 71.2M 56.8 71.2L 57.6 72L 56.8 71.2z"/>
<path style="stroke:none; fill:#5176b9" d="M 68 71.2L 68.8 72L 68 71.2z"/>
<path style="stroke:none; fill:#cdd9ec" d="M 70.6666 71.7334C 70.6222 71.7778 70.5778 72.6222 70.9334 72.2666C 70.9778 72.2222 71.0222 71.3778 70.6666 71.7334z"/>
<path style="stroke:none; fill:#839fd4" d="M 77.0666 71.7334C 77.0222 71.7778 76.9778 72.6222 77.3334 72.2666C 77.3778 72.2222 77.4222 71.3778 77.0666 71.7334z"/>
<path style="stroke:none; fill:#2c5fb8" d="M 80.2664 71.7334C 80.2224 71.7778 80.1776 72.6222 80.5336 72.2666C 80.5776 72.2222 80.6224 71.3778 80.2664 71.7334z"/>
<path style="stroke:none; fill:#6c8fcc" d="M 85.0664 71.7334C 85.0224 71.7778 84.9776 72.6222 85.3336 72.2666C 85.3776 72.2222 85.4224 71.3778 85.0664 71.7334z"/>
<path style="stroke:none; fill:#839fd4" d="M 86.6664 71.7334C 86.6224 71.7778 86.5776 72.6222 86.9336 72.2666C 86.9776 72.2222 87.0224 71.3778 86.6664 71.7334z"/>
<path style="stroke:none; fill:#3968bb" d="M 91.2 71.2L 91.2 75.2L 92 75.2C 91.9296 73.6287 91.8232 72.6153 91.2 71.2z"/>
<path style="stroke:none; fill:#5e83c6" d="M 100 71.2L 100 76L 100.8 76C 100.762 74.1978 100.699 72.8417 100 71.2z"/>
<path style="stroke:none; fill:#d6deea" d="M 100.8 71.2L 100.8 76L 101.6 76C 101.562 74.1978 101.499 72.8417 100.8 71.2z"/>
<path style="stroke:none; fill:#6c8fcc" d="M 105.066 71.7334C 105.022 71.7778 104.978 72.6222 105.334 72.2666C 105.378 72.2222 105.422 71.3778 105.066 71.7334z"/>
<path style="stroke:none; fill:#839fd4" d="M 106.4 71.2L 107.2 72L 106.4 71.2z"/>
<path style="stroke:none; fill:#3968bb" d="M 121.6 71.2L 121.6 73.6L 122.4 73.6C 122.199 72.4387 122.148 72.1986 121.6 71.2z"/>
<path style="stroke:none; fill:#2c5fb8" d="M 156 71.2L 156 74.4L 156.8 74.4C 156.661 73.0518 156.546 72.4048 156 71.2z"/>
<path style="stroke:none; fill:#9db3dd" d="M 166.4 71.2L 167.2 72L 166.4 71.2z"/>
<path style="stroke:none; fill:#5e83c6" d="M 237.6 71.2L 238.4 72L 237.6 71.2z"/>
<path style="stroke:none; fill:#839fd4" d="M 21.6 72L 22.4 72.8L 21.6 72z"/>
<path style="stroke:none; fill:#8da6d2" d="M 43.2 72L 44 72.8L 43.2 72z"/>
<path style="stroke:none; fill:#5e83c6" d="M 57.6 72L 58.4 72.8L 57.6 72z"/>
<path style="stroke:none; fill:#2c5fb8" d="M 67.4666 72.5334C 67.4222 72.5778 67.3778 73.4222 67.7334 73.0666C 67.7778 73.0222 67.8222 72.1778 67.4666 72.5334z"/>
<path style="stroke:none; fill:#acb8d2" d="M 68.2666 72.5334C 68.2222 72.5778 68.1778 73.4222 68.5334 73.0666C 68.5778 73.0222 68.6222 72.1778 68.2666 72.5334z"/>
<path style="stroke:none; fill:#ffffff" d="M 85.6 72L 85.6 76L 86.4 76C 86.3296 74.4287 86.2232 73.4152 85.6 72z"/>
<path style="stroke:none; fill:#acb8d2" d="M 92 72L 92 76L 92.8 76C 92.7296 74.4287 92.6232 73.4152 92 72z"/>
<path style="stroke:none; fill:#b5c5e6" d="M 104 72L 104 74.4L 104.8 74.4C 104.599 73.2388 104.548 72.9986 104 72z"/>
<path style="stroke:none; fill:#748dba" d="M 108 72L 108 76L 108.8 76C 108.73 74.4287 108.623 73.4153 108 72z"/>
<path style="stroke:none; fill:#3968bb" d="M 112.8 72L 112.8 76L 113.6 76C 113.53 74.4287 113.423 73.4152 112.8 72z"/>
<path style="stroke:none; fill:#b5c5e6" d="M 113.6 72L 113.6 76L 114.4 76C 114.33 74.4287 114.223 73.4152 113.6 72z"/>
<path style="stroke:none; fill:#d6deea" d="M 130.4 72L 130.4 76L 131.2 76C 131.13 74.4287 131.023 73.4152 130.4 72z"/>
<path style="stroke:none; fill:#748dba" d="M 131.2 72L 131.2 76L 132 76C 131.93 74.4287 131.823 73.4152 131.2 72z"/>
<path style="stroke:none; fill:#2c5fb8" d="M 136 72L 136 76L 136.8 76C 136.73 74.4287 136.623 73.4153 136 72z"/>
<path style="stroke:none; fill:#d6deea" d="M 136.8 72L 136.8 76L 137.6 76C 137.53 74.4287 137.423 73.4153 136.8 72z"/>
<path style="stroke:none; fill:#8da6d2" d="M 164.8 72L 165.6 72.8L 164.8 72z"/>
<path style="stroke:none; fill:#2c5fb8" d="M 174.4 72L 174.4 74.4L 175.2 74.4C 174.999 73.2387 174.948 72.9986 174.4 72z"/>
<path style="stroke:none; fill:#5176b9" d="M 236.8 72L 237.6 72.8L 236.8 72z"/>
<path style="stroke:none; fill:#839fd4" d="M 20.8 72.8L 21.6 73.6L 20.8 72.8z"/>
<path style="stroke:none; fill:#b5c5e6" d="M 44.8 72.8L 45.6 73.6L 44.8 72.8z"/>
<path style="stroke:none; fill:#748dba" d="M 45.6 72.8L 46.4 73.6L 45.6 72.8z"/>
<path style="stroke:none; fill:#839fd4" d="M 58.4 72.8L 59.2 73.6L 58.4 72.8z"/>
<path style="stroke:none; fill:#6c8fcc" d="M 70.4 72.8L 70.4 77.6L 71.2 77.6C 71.1622 75.7978 71.0994 74.4417 70.4 72.8z"/>
<path style="stroke:none; fill:#5176b9" d="M 76 72.8L 76 75.2L 76.8 75.2C 76.599 74.0388 76.5478 73.7986 76 72.8z"/>
<path style="stroke:none; fill:#b5c5e6" d="M 77.0666 73.3334C 77.0222 73.3778 76.9778 74.2222 77.3334 73.8666C 77.3778 73.8222 77.4222 72.9778 77.0666 73.3334z"/>
<path style="stroke:none; fill:#acb8d2" d="M 79.2 72.8L 79.2 76.8L 80 76.8C 79.9299 75.2287 79.8231 74.2152 79.2 72.8z"/>
<path style="stroke:none; fill:#b5c5e6" d="M 84.8 72.8C 84.9344 74.722 84.9576 75.5682 86.4 76.8C 85.9592 75.3399 85.5392 74.1186 84.8 72.8z"/>
<path style="stroke:none; fill:#5e83c6" d="M 86.4 72.8C 86.4856 75.4405 86.6216 76.8315 88.8 78.4L 86.4 72.8z"/>
<path style="stroke:none; fill:#acb8d2" d="M 94.4 72.8L 95.2 73.6L 94.4 72.8z"/>
<path style="stroke:none; fill:#6c8fcc" d="M 139.2 72.8C 138.451 74.3589 138.086 74.8402 136.8 76L 136.8 76.8L 138.4 77.6L 139.2 77.6C 139.636 76.2919 139.492 76.436 140.8 76C 140.323 74.7519 139.929 73.9013 139.2 72.8z"/>
<path style="stroke:none; fill:#5079c5" d="M 144.8 72.8L 144.8 76L 145.6 76C 145.461 74.6518 145.346 74.0048 144.8 72.8z"/>
<path style="stroke:none; fill:#9db3dd" d="M 161.6 75.2L 162.4 75.2C 162.836 73.8919 162.692 74.036 164 73.6C 162.288 72.7058 161.978 73.3994 161.6 75.2z"/>
<path style="stroke:none; fill:#d6deea" d="M 175.2 72.8C 175.334 74.722 175.358 75.5682 176.8 76.8C 176.359 75.3399 175.939 74.1185 175.2 72.8z"/>
<path style="stroke:none; fill:#3968bb" d="M 231.2 72.8L 231.2 75.2L 232 75.2C 231.799 74.0387 231.748 73.7986 231.2 72.8z"/>
<path style="stroke:none; fill:#acb8d2" d="M 20 73.6L 20.8 74.4L 20 73.6z"/>
<path style="stroke:none; fill:#839fd4" d="M 47.2 73.6L 48 74.4L 47.2 73.6z"/>
<path style="stroke:none; fill:#b5c5e6" d="M 59.2 73.6L 60 74.4L 59.2 73.6z"/>
<path style="stroke:none; fill:#5079c5" d="M 67.4666 74.1334C 67.4222 74.1778 67.3778 75.0222 67.7334 74.6666C 67.7778 74.6222 67.8222 73.7778 67.4666 74.1334M 94.4 73.6L 94.4 76L 96 75.2L 96 74.4L 94.4 73.6z"/>
<path style="stroke:none; fill:#b5c5e6" d="M 105.6 73.6L 106.4 74.4L 105.6 73.6z"/>
<path style="stroke:none; fill:#8da6d2" d="M 121.6 73.6L 121.6 76.8L 122.4 76.8C 122.261 75.4518 122.146 74.8048 121.6 73.6z"/>
<path style="stroke:none; fill:#d6deea" d="M 125.334 73.8666C 124.978 74.2222 125.822 74.1778 125.866 74.1334C 126.222 73.7778 125.378 73.8222 125.334 73.8666z"/>
<path style="stroke:none; fill:#cdd9ec" d="M 178.4 73.6L 179.2 76L 180 76L 180 73.6L 178.4 73.6z"/>
<path style="stroke:none; fill:#3968bb" d="M 269.066 74.1334C 269.022 74.1777 268.978 75.0222 269.334 74.6666C 269.378 74.6222 269.422 73.7778 269.066 74.1334z"/>
<path style="stroke:none; fill:#acb8d2" d="M 274.666 74.1334C 274.622 74.1777 274.578 75.0222 274.934 74.6666C 274.978 74.6222 275.022 73.7778 274.666 74.1334z"/>
<path style="stroke:none; fill:#6c8fcc" d="M 26.1334 74.6666C 25.7778 75.0222 26.6222 74.9778 26.6666 74.9334C 27.0222 74.5778 26.1778 74.6222 26.1334 74.6666z"/>
<path style="stroke:none; fill:#9db3dd" d="M 27.2 74.4L 27.2 75.2L 31.2 75.2C 29.7848 74.5769 28.7713 74.4701 27.2 74.4z"/>
<path style="stroke:none; fill:#5176b9" d="M 31.7334 74.6666C 31.3778 75.0222 32.2222 74.9778 32.2666 74.9334C 32.6222 74.5778 31.7778 74.6222 31.7334 74.6666z"/>
<path style="stroke:none; fill:#6c8fcc" d="M 35.2 74.4L 36 75.2L 35.2 74.4z"/>
<path style="stroke:none; fill:#8da6d2" d="M 48.8 74.4L 49.6 75.2L 48.8 74.4z"/>
<path style="stroke:none; fill:#5e83c6" d="M 59.2 74.4L 60 75.2L 59.2 74.4z"/>
<path style="stroke:none; fill:#cdd9ec" d="M 103.2 74.4L 104 75.2L 103.2 74.4z"/>
<path style="stroke:none; fill:#5079c5" d="M 102.4 77.6C 103.802 76.5358 104.536 75.802 105.6 74.4C 103.801 75.3229 103.323 75.8009 102.4 77.6z"/>
<path style="stroke:none; fill:#8da6d2" d="M 124.8 74.4C 125.236 75.7082 125.092 75.5639 126.4 76L 126.4 74.4L 124.8 74.4z"/>
<path style="stroke:none; fill:#cdd9ec" d="M 138.4 74.4L 139.2 75.2L 138.4 74.4z"/>
<path style="stroke:none; fill:#5176b9" d="M 148 74.4L 147.2 77.6L 148 77.6C 148.372 76.055 148.459 75.8474 148 74.4z"/>
<path style="stroke:none; fill:#d6deea" d="M 155.2 74.4L 154.4 76L 156 76C 156 74.5174 156.24 74.9199 155.2 74.4z"/>
<path style="stroke:none; fill:#5e83c6" d="M 156.266 74.9334C 156.222 74.9778 156.178 75.8222 156.534 75.4666C 156.578 75.4222 156.622 74.5778 156.266 74.9334z"/>
<path style="stroke:none; fill:#5176b9" d="M 174.4 74.4L 174.4 76.8L 175.2 76.8C 174.999 75.6387 174.948 75.3987 174.4 74.4z"/>
<path style="stroke:none; fill:#b5c5e6" d="M 177.6 74.4L 178.4 75.2L 177.6 74.4z"/>
<path style="stroke:none; fill:#6c8fcc" d="M 178.4 74.4C 178.425 75.8654 178.336 75.647 179.2 76.8C 178.999 75.6387 178.948 75.3986 178.4 74.4z"/>
<path style="stroke:none; fill:#acb8d2" d="M 19.2 75.2L 20 76L 19.2 75.2z"/>
<path style="stroke:none; fill:#3968bb" d="M 24 75.2L 24.8 76L 24 75.2z"/>
<path style="stroke:none; fill:#cdd9ec" d="M 25.3334 75.4666C 24.9778 75.8222 25.8222 75.7778 25.8666 75.7334C 26.2222 75.3778 25.3778 75.4222 25.3334 75.4666M 31.2 75.2L 31.2 76L 33.6 76C 32.6014 75.4522 32.3613 75.401 31.2 75.2z"/>
<path style="stroke:none; fill:#8da6d2" d="M 34.1334 75.4666C 33.7778 75.8222 34.6222 75.7778 34.6666 75.7334C 35.0222 75.3778 34.1778 75.4222 34.1334 75.4666z"/>
<path style="stroke:none; fill:#839fd4" d="M 50.4 75.2L 51.2 76L 50.4 75.2z"/>
<path style="stroke:none; fill:#748dba" d="M 60.2666 75.7334C 60.2222 75.7778 60.1778 76.6222 60.5334 76.2666C 60.5778 76.2222 60.6222 75.3778 60.2666 75.7334z"/>
<path style="stroke:none; fill:#3968bb" d="M 66.4 75.2L 66.4 78.4L 63.2 78.4L 63.2 79.2L 67.2 79.2C 67.1299 77.6287 67.0231 76.6152 66.4 75.2z"/>
<path style="stroke:none; fill:#acb8d2" d="M 67.2 75.2L 67.2 79.2L 68 79.2C 67.9299 77.6287 67.8231 76.6152 67.2 75.2z"/>
<path style="stroke:none; fill:#8da6d2" d="M 76 75.2L 76 78.4L 76.8 78.4C 76.6607 77.0518 76.5464 76.4048 76 75.2z"/>
<path style="stroke:none; fill:#9db3dd" d="M 93.6 75.2L 94.4 76L 93.6 75.2z"/>
<path style="stroke:none; fill:#5079c5" d="M 124.8 75.2L 122.4 77.6C 124.23 77.29 124.88 77.1167 124.8 75.2z"/>
<path style="stroke:none; fill:#5e83c6" d="M 153.6 75.2L 154.4 76L 153.6 75.2z"/>
<path style="stroke:none; fill:#839fd4" d="M 162.4 75.2L 163.2 76L 162.4 75.2z"/>
<path style="stroke:none; fill:#2c5fb8" d="M 164 76.8L 164 77.6C 166.933 77.993 168.841 77.8486 171.2 76C 168.713 75.8332 166.469 76.443 164 76.8z"/>
<path style="stroke:none; fill:#b5c5e6" d="M 196.8 75.2L 196.8 77.6L 197.6 77.6C 197.399 76.4387 197.348 76.1987 196.8 75.2z"/>
<path style="stroke:none; fill:#839fd4" d="M 231.466 75.7334C 231.422 75.7777 231.378 76.6222 231.734 76.2666C 231.778 76.2222 231.822 75.3778 231.466 75.7334z"/>
<path style="stroke:none; fill:#5e83c6" d="M 268.266 75.7334C 268.222 75.7778 268.178 76.6222 268.534 76.2666C 268.578 76.2222 268.622 75.3778 268.266 75.7334z"/>
<path style="stroke:none; fill:#3968bb" d="M 273.6 75.2L 273.6 78.4L 274.4 78.4C 274.261 77.0518 274.146 76.4048 273.6 75.2M 19.4666 76.5334C 19.4222 76.5778 19.3778 77.4222 19.7334 77.0666C 19.7778 77.0222 19.8222 76.1778 19.4666 76.5334z"/>
<path style="stroke:none; fill:#5176b9" d="M 23.2 76L 24 76.8L 23.2 76z"/>
<path style="stroke:none; fill:#acb8d2" d="M 24 76L 24.8 76.8L 24 76M 51.2 76L 52 76.8L 51.2 76z"/>
<path style="stroke:none; fill:#5e83c6" d="M 52 76L 52.8 76.8L 52 76z"/>
<path style="stroke:none; fill:#cdd9ec" d="M 60.8 76L 60.8 80.8L 61.6 80.8C 61.7796 78.7861 61.803 77.7297 60.8 76z"/>
<path style="stroke:none; fill:#5e83c6" d="M 92.8 76C 93.236 77.3082 93.092 77.1639 94.4 77.6L 94.4 76L 92.8 76z"/>
<path style="stroke:none; fill:#acb8d2" d="M 94.4 76L 95.2 76.8L 94.4 76z"/>
<path style="stroke:none; fill:#5e83c6" d="M 96 76L 96.8 76.8L 96 76z"/>
<path style="stroke:none; fill:#8da6d2" d="M 101.334 76.2666C 100.978 76.6222 101.822 76.5778 101.866 76.5334C 102.222 76.1778 101.378 76.2222 101.334 76.2666z"/>
<path style="stroke:none; fill:#9db3dd" d="M 104 76L 104.8 76.8L 104 76z"/>
<path style="stroke:none; fill:#d6deea" d="M 108.266 76.5334C 108.222 76.5778 108.178 77.4222 108.534 77.0666C 108.578 77.0222 108.622 76.1778 108.266 76.5334z"/>
<path style="stroke:none; fill:#839fd4" d="M 113.6 76L 113.6 76.8L 116 76.8C 115.002 76.2522 114.762 76.201 113.6 76z"/>
<path style="stroke:none; fill:#b5c5e6" d="M 122.934 76.2666C 122.578 76.6222 123.422 76.5778 123.466 76.5334C 123.822 76.1778 122.978 76.2222 122.934 76.2666z"/>
<path style="stroke:none; fill:#cdd9ec" d="M 131.466 76.5334C 131.422 76.5778 131.378 77.4222 131.734 77.0666C 131.778 77.0222 131.822 76.1778 131.466 76.5334z"/>
<path style="stroke:none; fill:#acb8d2" d="M 139.734 76.2666C 139.378 76.6222 140.222 76.5778 140.266 76.5334C 140.622 76.1778 139.778 76.2222 139.734 76.2666z"/>
<path style="stroke:none; fill:#8da6d2" d="M 146.134 76.2666C 145.778 76.6222 146.622 76.5778 146.666 76.5334C 147.022 76.1778 146.178 76.2222 146.134 76.2666z"/>
<path style="stroke:none; fill:#6c8fcc" d="M 154.934 76.2666C 154.578 76.6222 155.422 76.5778 155.466 76.5334C 155.822 76.1778 154.978 76.2222 154.934 76.2666z"/>
<path style="stroke:none; fill:#3968bb" d="M 156.534 76.2666C 156.178 76.6222 157.022 76.5778 157.066 76.5334C 157.422 76.1778 156.578 76.2222 156.534 76.2666z"/>
<path style="stroke:none; fill:#8da6d2" d="M 163.734 76.2666C 163.378 76.6222 164.222 76.5778 164.266 76.5334C 164.622 76.1778 163.778 76.2222 163.734 76.2666z"/>
<path style="stroke:none; fill:#b5c5e6" d="M 164.8 76L 164.8 76.8L 167.2 76.8C 166.202 76.2522 165.962 76.201 164.8 76z"/>
<path style="stroke:none; fill:#5e83c6" d="M 176 78.4L 172 78.4L 172 79.2C 175.009 79.0354 176.842 78.6694 178.4 76C 176.464 76.533 175.978 76.5148 176 78.4z"/>
<path style="stroke:none; fill:#b5c5e6" d="M 217.6 76C 217.147 78.4751 216.405 80.6304 218.4 82.4C 218.15 80.2144 218.359 78.0458 217.6 76z"/>
<path style="stroke:none; fill:#6c8fcc" d="M 233.6 76L 234.4 76.8L 233.6 76z"/>
<path style="stroke:none; fill:#d6deea" d="M 23.2 76.8L 23.2 81.6L 24 81.6C 23.9622 79.7978 23.8994 78.4417 23.2 76.8z"/>
<path style="stroke:none; fill:#6c8fcc" d="M 52.8 76.8L 53.6 77.6L 52.8 76.8z"/>
<path style="stroke:none; fill:#3968bb" d="M 60 76.8L 60 80.8L 60.8 80.8C 60.7299 79.2287 60.6231 78.2152 60 76.8z"/>
<path style="stroke:none; fill:#5176b9" d="M 80 76.8L 80.8 77.6L 80 76.8z"/>
<path style="stroke:none; fill:#2c5fb8" d="M 84.8 76.8L 84.8 78.4L 86.4 78.4L 86.4 76.8L 84.8 76.8z"/>
<path style="stroke:none; fill:#cdd9ec" d="M 96 76.8L 96.8 77.6L 96 76.8z"/>
<path style="stroke:none; fill:#2c5fb8" d="M 97.6 77.6L 97.6 78.4C 99.364 78.3247 100.715 78.115 102.4 77.6C 100.736 77.1945 99.3296 77.4105 97.6 77.6z"/>
<path style="stroke:none; fill:#9db3dd" d="M 103.2 76.8L 104 77.6L 103.2 76.8z"/>
<path style="stroke:none; fill:#acb8d2" d="M 116.8 76.8L 117.6 77.6L 116.8 76.8M 124.8 76.8L 125.6 77.6L 124.8 76.8z"/>
<path style="stroke:none; fill:#5176b9" d="M 132 76.8L 132.8 77.6L 132 76.8z"/>
<path style="stroke:none; fill:#839fd4" d="M 140.8 76.8L 141.6 77.6L 140.8 76.8z"/>
<path style="stroke:none; fill:#2c5fb8" d="M 142.4 77.6L 142.4 78.4C 144.164 78.3247 145.515 78.115 147.2 77.6C 145.536 77.1945 144.13 77.4105 142.4 77.6z"/>
<path style="stroke:none; fill:#9db3dd" d="M 148 76.8L 148.8 77.6L 148 76.8z"/>
<path style="stroke:none; fill:#5e83c6" d="M 148.8 76.8C 150.587 78.637 151.842 79.0162 154.4 79.2L 154.4 78.4C 152.333 78.1424 150.718 77.6217 148.8 76.8z"/>
<path style="stroke:none; fill:#acb8d2" d="M 156.534 77.0666C 156.178 77.4222 157.022 77.3778 157.066 77.3334C 157.422 76.9778 156.578 77.0222 156.534 77.0666z"/>
<path style="stroke:none; fill:#5e83c6" d="M 157.6 76.8L 158.4 77.6L 157.6 76.8z"/>
<path style="stroke:none; fill:#9db3dd" d="M 170.134 77.0666C 169.778 77.4222 170.622 77.3778 170.666 77.3334C 171.022 76.9778 170.178 77.0222 170.134 77.0666M 231.2 76.8C 230.222 77.7562 230.064 77.8531 228.8 78.4L 228.8 79.2C 230.54 78.7663 231.514 78.6271 231.2 76.8z"/>
<path style="stroke:none; fill:#5e83c6" d="M 231.2 79.2C 232.99 78.8383 233.191 78.5832 233.6 76.8C 232.062 77.5212 232.001 77.661 231.2 79.2M 22.4 77.6L 22.4 80.8L 23.2 80.8C 23.0607 79.4518 22.9464 78.8049 22.4 77.6z"/>
<path style="stroke:none; fill:#6c8fcc" d="M 53.6 77.6L 54.4 78.4L 53.6 77.6z"/>
<path style="stroke:none; fill:#b5c5e6" d="M 70.4 77.6L 71.2 78.4L 70.4 77.6z"/>
<path style="stroke:none; fill:#9db3dd" d="M 80 77.6L 80.8 78.4L 80 77.6z"/>
<path style="stroke:none; fill:#acb8d2" d="M 86.9336 77.8666C 86.5776 78.2222 87.4224 78.1778 87.4664 78.1334C 87.8224 77.7778 86.9776 77.8222 86.9336 77.8666z"/>
<path style="stroke:none; fill:#6c8fcc" d="M 92.8 77.6L 93.6 78.4L 92.8 77.6z"/>
<path style="stroke:none; fill:#acb8d2" d="M 96.8 77.6L 97.6 78.4L 96.8 77.6z"/>
<path style="stroke:none; fill:#5e83c6" d="M 101.6 77.6L 102.4 78.4L 101.6 77.6z"/>
<path style="stroke:none; fill:#acb8d2" d="M 102.4 77.6L 103.2 78.4L 102.4 77.6z"/>
<path style="stroke:none; fill:#8da6d2" d="M 108.8 77.6L 109.6 78.4L 108.8 77.6M 115.2 77.6L 116 78.4L 115.2 77.6z"/>
<path style="stroke:none; fill:#5079c5" d="M 118.4 77.6L 119.2 78.4L 118.4 77.6z"/>
<path style="stroke:none; fill:#acb8d2" d="M 124 77.6L 124.8 78.4L 124 77.6M 132 77.6L 132.8 78.4L 132 77.6z"/>
<path style="stroke:none; fill:#8da6d2" d="M 137.6 77.6L 138.4 78.4L 137.6 77.6M 141.6 77.6L 142.4 78.4L 141.6 77.6z"/>
<path style="stroke:none; fill:#6c8fcc" d="M 146.4 77.6L 147.2 78.4L 146.4 77.6z"/>
<path style="stroke:none; fill:#b5c5e6" d="M 147.2 77.6L 148 78.4L 147.2 77.6M 148.8 77.6L 149.6 78.4L 148.8 77.6z"/>
<path style="stroke:none; fill:#5176b9" d="M 154.4 77.6L 155.2 78.4L 154.4 77.6z"/>
<path style="stroke:none; fill:#8da6d2" d="M 155.2 77.6L 156 78.4L 155.2 77.6z"/>
<path style="stroke:none; fill:#839fd4" d="M 158.4 77.6L 159.2 78.4L 158.4 77.6z"/>
<path style="stroke:none; fill:#8da6d2" d="M 168 77.6L 168.8 78.4L 168 77.6z"/>
<path style="stroke:none; fill:#6c8fcc" d="M 171.2 77.6L 172 78.4L 171.2 77.6z"/>
<path style="stroke:none; fill:#5079c5" d="M 54.4 78.4L 55.2 79.2L 54.4 78.4z"/>
<path style="stroke:none; fill:#acb8d2" d="M 62.4 78.4L 63.2 79.2L 62.4 78.4z"/>
<path style="stroke:none; fill:#b5c5e6" d="M 71.2 78.4L 72 79.2L 71.2 78.4z"/>
<path style="stroke:none; fill:#5e83c6" d="M 72 78.4L 72 79.2L 76 79.2C 74.5848 78.5769 73.5713 78.4701 72 78.4z"/>
<path style="stroke:none; fill:#8da6d2" d="M 80.8 78.4L 81.6 79.2L 80.8 78.4z"/>
<path style="stroke:none; fill:#5176b9" d="M 81.6 78.4L 81.6 79.2L 84.8 79.2C 83.5952 78.6536 82.948 78.5393 81.6 78.4z"/>
<path style="stroke:none; fill:#9db3dd" d="M 84.8 78.4L 85.6 79.2L 84.8 78.4z"/>
<path style="stroke:none; fill:#5e83c6" d="M 88.8 78.4L 88.8 79.2L 92.8 79.2C 91.3848 78.5769 90.3712 78.4701 88.8 78.4z"/>
<path style="stroke:none; fill:#8da6d2" d="M 97.6 78.4L 97.6 79.2L 101.6 79.2C 100.185 78.5769 99.1712 78.4701 97.6 78.4z"/>
<path style="stroke:none; fill:#5176b9" d="M 109.6 78.4L 109.6 79.2L 113.6 79.2C 112.185 78.5769 111.171 78.4701 109.6 78.4z"/>
<path style="stroke:none; fill:#839fd4" d="M 113.6 78.4L 114.4 79.2L 113.6 78.4z"/>
<path style="stroke:none; fill:#5e83c6" d="M 119.2 78.4L 119.2 79.2L 123.2 79.2C 121.785 78.5769 120.771 78.4701 119.2 78.4z"/>
<path style="stroke:none; fill:#9db3dd" d="M 132.8 78.4L 133.6 79.2L 132.8 78.4z"/>
<path style="stroke:none; fill:#5079c5" d="M 133.6 78.4L 133.6 79.2L 136.8 79.2C 135.595 78.6536 134.948 78.5393 133.6 78.4z"/>
<path style="stroke:none; fill:#b5c5e6" d="M 136.8 78.4L 137.6 79.2L 136.8 78.4z"/>
<path style="stroke:none; fill:#9db3dd" d="M 142.4 78.4L 142.4 79.2L 146.4 79.2C 144.985 78.5769 143.971 78.4701 142.4 78.4z"/>
<path style="stroke:none; fill:#b5c5e6" d="M 149.6 78.4L 150.4 79.2L 149.6 78.4z"/>
<path style="stroke:none; fill:#839fd4" d="M 159.734 78.6666C 159.378 79.0222 160.222 78.9778 160.266 78.9334C 160.622 78.5778 159.778 78.6222 159.734 78.6666z"/>
<path style="stroke:none; fill:#5176b9" d="M 160.8 78.4L 160.8 79.2L 165.6 79.2C 163.958 78.5006 162.602 78.4378 160.8 78.4z"/>
<path style="stroke:none; fill:#9db3dd" d="M 166.134 78.6666C 165.778 79.0222 166.622 78.9778 166.666 78.9334C 167.022 78.5777 166.178 78.6222 166.134 78.6666z"/>
<path style="stroke:none; fill:#b5c5e6" d="M 176 78.4L 176.8 79.2L 176 78.4M 197.866 78.9334C 197.822 78.9778 197.778 79.8222 198.134 79.4666C 198.178 79.4222 198.222 78.5778 197.866 78.9334z"/>
<path style="stroke:none; fill:#5079c5" d="M 267.466 78.9334C 267.422 78.9777 267.378 79.8222 267.734 79.4666C 267.778 79.4222 267.822 78.5778 267.466 78.9334z"/>
<path style="stroke:none; fill:#9db3dd" d="M 273.866 78.9334C 273.822 78.9778 273.778 79.8222 274.134 79.4666C 274.178 79.4222 274.222 78.5778 273.866 78.9334z"/>
<path style="stroke:none; fill:#b5c5e6" d="M 54.4 79.2L 54.4 82.4L 55.2 82.4C 55.0607 81.052 54.9464 80.4048 54.4 79.2M 63.2 79.2L 63.2 80L 67.2 80C 65.7848 79.3769 64.7713 79.2701 63.2 79.2z"/>
<path style="stroke:none; fill:#d6deea" d="M 72.8 79.2L 72.8 80L 75.2 80C 74.2014 79.4522 73.9613 79.401 72.8 79.2z"/>
<path style="stroke:none; fill:#b5c5e6" d="M 81.6 79.2L 81.6 80L 84 80C 83.0016 79.4522 82.7616 79.401 81.6 79.2z"/>
<path style="stroke:none; fill:#d6deea" d="M 89.6 79.2L 89.6 80L 92 80C 91.0016 79.4522 90.7616 79.401 89.6 79.2z"/>
<path style="stroke:none; fill:#b5c5e6" d="M 110.4 79.2L 110.4 80L 112.8 80C 111.802 79.4522 111.562 79.401 110.4 79.2z"/>
<path style="stroke:none; fill:#d6deea" d="M 120 79.2L 120 80L 122.4 80C 121.402 79.4522 121.162 79.401 120 79.2z"/>
<path style="stroke:none; fill:#cdd9ec" d="M 133.6 79.2L 133.6 80L 136 80C 135.002 79.4522 134.762 79.401 133.6 79.2z"/>
<path style="stroke:none; fill:#d6deea" d="M 151.2 79.2L 151.2 80L 153.6 80C 152.602 79.4522 152.362 79.401 151.2 79.2z"/>
<path style="stroke:none; fill:#cdd9ec" d="M 160.8 79.2L 160.8 80L 164.8 80C 163.385 79.3769 162.371 79.2701 160.8 79.2z"/>
<path style="stroke:none; fill:#d6deea" d="M 172.8 79.2L 172.8 80L 175.2 80C 174.202 79.4522 173.962 79.401 172.8 79.2z"/>
<path style="stroke:none; fill:#6c8fcc" d="M 215.2 79.2L 215.2 82.4L 216 82.4C 215.861 81.052 215.746 80.4048 215.2 79.2z"/>
<path style="stroke:none; fill:#acb8d2" d="M 225.6 79.2L 225.6 80L 228 80C 227.002 79.4522 226.762 79.401 225.6 79.2z"/>
<path style="stroke:none; fill:#5e83c6" d="M 228.534 79.4666C 228.178 79.8223 229.022 79.7777 229.066 79.7334C 229.422 79.3778 228.578 79.4222 228.534 79.4666z"/>
<path style="stroke:none; fill:#3968bb" d="M 216 93.6L 216.8 93.6L 216.8 84C 224.989 92.1888 235.737 99.34 242.4 108.8C 253.235 106.558 263.129 101.012 268.8 91.2C 266.57 89.0168 266.435 87.0616 266.4 84L 265.6 84C 264.394 92.6328 249.983 102.426 243.2 107.2C 240.806 98.4488 233.795 88.3632 234.4 79.2C 230.166 79.2874 218.618 79.9847 216.482 84.3352C 215.258 86.8296 216 90.8824 216 93.6z"/>
<path style="stroke:none; fill:#5e83c6" d="M 234.934 79.4666C 234.578 79.8223 235.422 79.7778 235.466 79.7334C 235.822 79.3778 234.978 79.4222 234.934 79.4666z"/>
<path style="stroke:none; fill:#b5c5e6" d="M 198.4 80L 200 87.2L 200.8 87.2L 200.8 84.8C 204.686 84.768 208.214 83.9808 212 83.2C 207.901 80.9728 202.975 80.5784 198.4 80z"/>
<path style="stroke:none; fill:#6c8fcc" d="M 200.8 80L 200.8 80.8L 204 80.8C 202.795 80.2536 202.148 80.1392 200.8 80z"/>
<path style="stroke:none; fill:#9db3dd" d="M 223.2 80L 223.2 80.8L 225.6 80.8C 224.602 80.252 224.362 80.2008 223.2 80z"/>
<path style="stroke:none; fill:#0642ac" d="M 233.6 80C 235.186 89.2208 239.823 98.4936 243.2 107.2C 250.032 104.014 260.797 94.864 264 88C 253.653 87.0912 244.129 80.86 233.6 80z"/>
<path style="stroke:none; fill:#5079c5" d="M 237.334 80.2664C 236.978 80.6224 237.822 80.5776 237.866 80.5336C 238.222 80.1776 237.378 80.2224 237.334 80.2664z"/>
<path style="stroke:none; fill:#8da6d2" d="M 238.934 80.2664C 238.578 80.6224 239.422 80.5776 239.466 80.5336C 239.822 80.1776 238.978 80.2224 238.934 80.2664z"/>
<path style="stroke:none; fill:#839fd4" d="M 19.2 80.8L 20 81.6L 19.2 80.8z"/>
<path style="stroke:none; fill:#acb8d2" d="M 60.2666 81.3336C 60.2222 81.3776 60.1778 82.2224 60.5334 81.8664C 60.5778 81.8224 60.6222 80.9776 60.2666 81.3336z"/>
<path style="stroke:none; fill:#9db3dd" d="M 220.8 80.8L 220.8 81.6L 223.2 81.6C 222.202 81.052 221.962 81.0008 220.8 80.8z"/>
<path style="stroke:none; fill:#6c8fcc" d="M 240.534 81.0664C 240.178 81.4224 241.022 81.3776 241.066 81.3336C 241.422 80.9776 240.578 81.0224 240.534 81.0664z"/>
<path style="stroke:none; fill:#5079c5" d="M 23.2 81.6L 24 82.4L 23.2 81.6z"/>
<path style="stroke:none; fill:#9db3dd" d="M 208.8 81.6L 208.8 82.4L 211.2 82.4C 210.202 81.852 209.962 81.8008 208.8 81.6z"/>
<path style="stroke:none; fill:#8da6d2" d="M 218.934 81.8664C 218.578 82.2224 219.422 82.1776 219.466 82.1336C 219.822 81.7776 218.978 81.8224 218.934 81.8664z"/>
<path style="stroke:none; fill:#5e83c6" d="M 242.934 81.8664C 242.578 82.2224 243.422 82.1776 243.466 82.1336C 243.822 81.7776 242.978 81.8224 242.934 81.8664z"/>
<path style="stroke:none; fill:#5079c5" d="M 266.666 82.1336C 266.622 82.1776 266.578 83.0224 266.934 82.6664C 266.978 82.6224 267.022 81.7776 266.666 82.1336z"/>
<path style="stroke:none; fill:#2c5fb8" d="M 272 81.6L 272 84L 272.8 84C 272.599 82.8384 272.548 82.5984 272 81.6z"/>
<path style="stroke:none; fill:#acb8d2" d="M 273.066 82.1336C 273.022 82.1776 272.978 83.0224 273.334 82.6664C 273.378 82.6224 273.422 81.7776 273.066 82.1336z"/>
<path style="stroke:none; fill:#6c8fcc" d="M 20 82.4L 20.8 83.2L 20 82.4M 24 82.4L 24.8 83.2L 24 82.4M 54.4 82.4L 55.2 83.2L 54.4 82.4z"/>
<path style="stroke:none; fill:#5176b9" d="M 59.2 82.4L 60 83.2L 59.2 82.4z"/>
<path style="stroke:none; fill:#9db3dd" d="M 200.8 84.8C 201.659 93.1888 208.514 99.5768 215.2 104C 215.2 100.416 217.239 84.3224 213.346 83.0304C 210.13 81.9632 204.365 84.7264 200.8 84.8z"/>
<path style="stroke:none; fill:#6c8fcc" d="M 246.134 82.6664C 245.778 83.0224 246.622 82.9776 246.666 82.9336C 247.022 82.5776 246.178 82.6224 246.134 82.6664M 24.8 83.2L 25.6 84L 24.8 83.2z"/>
<path style="stroke:none; fill:#b5c5e6" d="M 53.6 83.2L 54.4 84L 53.6 83.2M 59.2 83.2L 60 84L 59.2 83.2z"/>
<path style="stroke:none; fill:#8da6d2" d="M 249.334 83.4664C 248.978 83.8224 249.822 83.7776 249.866 83.7336C 250.222 83.3776 249.378 83.4224 249.334 83.4664z"/>
<path style="stroke:none; fill:#cdd9ec" d="M 20.8 84L 21.6 84.8L 20.8 84z"/>
<path style="stroke:none; fill:#5079c5" d="M 25.6 84L 26.4 84.8L 25.6 84z"/>
<path style="stroke:none; fill:#cdd9ec" d="M 26.4 84L 27.2 84.8L 26.4 84z"/>
<path style="stroke:none; fill:#5e83c6" d="M 53.6 84L 54.4 84.8L 53.6 84z"/>
<path style="stroke:none; fill:#8da6d2" d="M 58.4 84L 59.2 84.8L 58.4 84z"/>
<path style="stroke:none; fill:#d6deea" d="M 199.466 84.5336C 199.422 84.5776 199.378 85.4224 199.734 85.0664C 199.778 85.0224 199.822 84.1776 199.466 84.5336z"/>
<path style="stroke:none; fill:#0642ac" d="M 216.8 84C 216.8 89.388 214.213 98.0144 216.482 102.98C 220.036 110.754 235.743 108.8 242.4 108.8C 238.279 99.9632 224.737 89.5912 216.8 84z"/>
<path style="stroke:none; fill:#839fd4" d="M 251.734 84.2664C 251.378 84.6224 252.222 84.5776 252.266 84.5336C 252.622 84.1776 251.778 84.2224 251.734 84.2664M 272 84L 272.8 84.8L 272 84z"/>
<path style="stroke:none; fill:#b5c5e6" d="M 21.6 84.8L 22.4 85.6L 21.6 84.8z"/>
<path style="stroke:none; fill:#8da6d2" d="M 27.2 84.8L 28 85.6L 27.2 84.8z"/>
<path style="stroke:none; fill:#5e83c6" d="M 52.8 84.8L 53.6 85.6L 52.8 84.8z"/>
<path style="stroke:none; fill:#839fd4" d="M 57.6 84.8L 58.4 85.6L 57.6 84.8z"/>
<path style="stroke:none; fill:#6c8fcc" d="M 254.134 85.0664C 253.778 85.4224 254.622 85.3776 254.666 85.3336C 255.022 84.9776 254.178 85.0224 254.134 85.0664z"/>
<path style="stroke:none; fill:#b5c5e6" d="M 272 84.8L 272.8 85.6L 272 84.8z"/>
<path style="stroke:none; fill:#6c8fcc" d="M 23.2 85.6L 24 86.4L 23.2 85.6z"/>
<path style="stroke:none; fill:#5079c5" d="M 28 85.6L 28.8 86.4L 28 85.6z"/>
<path style="stroke:none; fill:#acb8d2" d="M 28.8 85.6L 29.6 86.4L 28.8 85.6z"/>
<path style="stroke:none; fill:#9db3dd" d="M 51.2 85.6L 52 86.4L 51.2 85.6M 56.8 85.6L 57.6 86.4L 56.8 85.6z"/>
<path style="stroke:none; fill:#5079c5" d="M 256.534 85.8664C 256.178 86.2224 257.022 86.1776 257.066 86.1336C 257.422 85.7776 256.578 85.8224 256.534 85.8664z"/>
<path style="stroke:none; fill:#6c8fcc" d="M 271.2 85.6L 272 86.4L 271.2 85.6z"/>
<path style="stroke:none; fill:#9db3dd" d="M 24 86.4L 24.8 87.2L 24 86.4z"/>
<path style="stroke:none; fill:#5079c5" d="M 29.6 86.4L 30.4 87.2L 29.6 86.4z"/>
<path style="stroke:none; fill:#8da6d2" d="M 30.4 86.4L 31.2 87.2L 30.4 86.4z"/>
<path style="stroke:none; fill:#9db3dd" d="M 49.6 86.4L 50.4 87.2L 49.6 86.4z"/>
<path style="stroke:none; fill:#5e83c6" d="M 55.2 86.4L 56 87.2L 55.2 86.4z"/>
<path style="stroke:none; fill:#2c5fb8" d="M 257.6 86.4L 257.6 87.2L 262.4 88L 262.4 87.2L 257.6 86.4z"/>
<path style="stroke:none; fill:#8da6d2" d="M 260.534 86.6664C 260.178 87.0224 261.022 86.9776 261.066 86.9336C 261.422 86.5776 260.578 86.6224 260.534 86.6664z"/>
<path style="stroke:none; fill:#acb8d2" d="M 271.2 86.4L 272 87.2L 271.2 86.4z"/>
<path style="stroke:none; fill:#9db3dd" d="M 25.6 87.2L 26.4 88L 25.6 87.2z"/>
<path style="stroke:none; fill:#5e83c6" d="M 31.2 87.2L 31.2 88L 33.6 88C 32.6014 87.452 32.3613 87.4008 31.2 87.2z"/>
<path style="stroke:none; fill:#cdd9ec" d="M 34.1334 87.4664C 33.7778 87.8224 34.6222 87.7776 34.6666 87.7336C 35.0222 87.3776 34.1778 87.4224 34.1334 87.4664M 45.6 87.2L 45.6 88L 48 88C 47.0014 87.452 46.7613 87.4008 45.6 87.2z"/>
<path style="stroke:none; fill:#5176b9" d="M 48.5334 87.4664C 48.1778 87.8224 49.0222 87.7776 49.0666 87.7336C 49.4222 87.3776 48.5778 87.4224 48.5334 87.4664z"/>
<path style="stroke:none; fill:#5079c5" d="M 53.6 87.2L 54.4 88L 53.6 87.2z"/>
<path style="stroke:none; fill:#9db3dd" d="M 54.4 87.2L 55.2 88L 54.4 87.2z"/>
<path style="stroke:none; fill:#6c8fcc" d="M 270.4 87.2L 271.2 88L 270.4 87.2z"/>
<path style="stroke:none; fill:#acb8d2" d="M 26.9334 88.2664C 26.5778 88.6224 27.4222 88.5776 27.4666 88.5336C 27.8222 88.1776 26.9778 88.2224 26.9334 88.2664z"/>
<path style="stroke:none; fill:#5176b9" d="M 28.5334 88.2664C 28.1778 88.6224 29.0222 88.5776 29.0666 88.5336C 29.4222 88.1776 28.5778 88.2224 28.5334 88.2664z"/>
<path style="stroke:none; fill:#3968bb" d="M 32 88.8L 32 89.6L 35.2 88.8C 33.8726 88.4752 33.4066 88.5528 32 88.8z"/>
<path style="stroke:none; fill:#748dba" d="M 35.2 88L 35.2 88.8L 38.4 88.8C 37.1952 88.2536 36.5482 88.1392 35.2 88z"/>
<path style="stroke:none; fill:#9db3dd" d="M 38.4 88L 38.4 88.8L 44 88.8C 42.1347 88.012 40.4346 88.0152 38.4 88z"/>
<path style="stroke:none; fill:#6c8fcc" d="M 44.5334 88.2664C 44.1778 88.6224 45.0222 88.5776 45.0666 88.5336C 45.4222 88.1776 44.5778 88.2224 44.5334 88.2664z"/>
<path style="stroke:none; fill:#2c5fb8" d="M 45.6 88L 45.6 88.8L 48.8 89.6L 48.8 88.8L 45.6 88z"/>
<path style="stroke:none; fill:#6c8fcc" d="M 52 88L 52.8 88.8L 52 88z"/>
<path style="stroke:none; fill:#cdd9ec" d="M 53.3334 88.2664C 52.9778 88.6224 53.8222 88.5776 53.8666 88.5336C 54.2222 88.1776 53.3778 88.2224 53.3334 88.2664z"/>
<path style="stroke:none; fill:#2c5fb8" d="M 266.4 88L 267.2 91.2L 268.8 91.2L 269.6 90.4L 269.6 88.8L 266.4 88z"/>
<path style="stroke:none; fill:#acb8d2" d="M 270.4 88L 271.2 88.8L 270.4 88z"/>
<path style="stroke:none; fill:#cdd9ec" d="M 28 88.8L 28 89.6L 30.4 89.6C 29.4013 89.052 29.1613 89.0008 28 88.8z"/>
<path style="stroke:none; fill:#6c8fcc" d="M 30.9334 89.0664C 30.5778 89.4224 31.4222 89.3776 31.4666 89.3336C 31.8222 88.9776 30.9778 89.0224 30.9334 89.0664z"/>
<path style="stroke:none; fill:#0642ac" d="M 34.4 88.8L 34.4 89.6L 37.6 89.6C 36.3952 89.0536 35.7482 88.9392 34.4 88.8z"/>
<path style="stroke:none; fill:#2c5fb8" d="M 37.6 88.8L 37.6 89.6L 43.2 89.6C 41.3347 88.812 39.6346 88.8152 37.6 88.8z"/>
<path style="stroke:none; fill:#0642ac" d="M 43.2 88.8L 43.2 89.6L 47.2 89.6C 45.7848 88.9768 44.7713 88.8704 43.2 88.8z"/>
<path style="stroke:none; fill:#6c8fcc" d="M 49.3334 89.0664C 48.9778 89.4224 49.8222 89.3776 49.8666 89.3336C 50.2222 88.9776 49.3778 89.0224 49.3334 89.0664z"/>
<path style="stroke:none; fill:#b5c5e6" d="M 50.9334 89.0664C 50.5778 89.4224 51.4222 89.3776 51.4666 89.3336C 51.8222 88.9776 50.9778 89.0224 50.9334 89.0664z"/>
<path style="stroke:none; fill:#9db3dd" d="M 269.866 89.3336C 269.822 89.3776 269.778 90.2224 270.134 89.8664C 270.178 89.8224 270.222 88.9776 269.866 89.3336z"/>
<path style="stroke:none; fill:#acb8d2" d="M 31.2 89.6L 31.2 90.4L 34.4 90.4C 33.1952 89.8536 32.5482 89.7392 31.2 89.6z"/>
<path style="stroke:none; fill:#839fd4" d="M 34.4 89.6L 34.4 90.4L 47.2 90.4C 43.421 88.8144 38.4722 89.6 34.4 89.6z"/>
<path style="stroke:none; fill:#b5c5e6" d="M 47.2 89.6L 47.2 90.4L 49.6 90.4C 48.6013 89.852 48.3613 89.8008 47.2 89.6z"/>
<path style="stroke:none; fill:#6c8fcc" d="M 268.8 90.4L 269.6 91.2L 268.8 90.4z"/>
<path style="stroke:none; fill:#5176b9" d="M 215.2 92L 215.2 98.4L 216 98.4C 215.994 96.1312 216.078 94.0904 215.2 92z"/>
<path style="stroke:none; fill:#9db3dd" d="M 268 92L 268.8 92.8L 268 92z"/>
<path style="stroke:none; fill:#839fd4" d="M 267.2 92.8L 268 93.6L 267.2 92.8z"/>
<path style="stroke:none; fill:#b5c5e6" d="M 266.4 94.4L 267.2 95.2L 266.4 94.4z"/>
<path style="stroke:none; fill:#acb8d2" d="M 265.6 95.2L 266.4 96L 265.6 95.2z"/>
<path style="stroke:none; fill:#9db3dd" d="M 264.8 96L 265.6 96.8L 264.8 96z"/>
<path style="stroke:none; fill:#8da6d2" d="M 264 96.8L 264.8 97.6L 264 96.8z"/>
<path style="stroke:none; fill:#839fd4" d="M 263.2 97.6L 264 98.4L 263.2 97.6z"/>
<path style="stroke:none; fill:#3968bb" d="M 215.2 98.4L 215.2 104L 216 104C 215.985 101.966 215.988 100.266 215.2 98.4z"/>
<path style="stroke:none; fill:#8da6d2" d="M 262.4 98.4L 263.2 99.2L 262.4 98.4M 261.6 99.2L 262.4 100L 261.6 99.2z"/>
<path style="stroke:none; fill:#9db3dd" d="M 260.8 100L 261.6 100.8L 260.8 100z"/>
<path style="stroke:none; fill:#acb8d2" d="M 260 100.8L 260.8 101.6L 260 100.8z"/>
<path style="stroke:none; fill:#6c8fcc" d="M 258.4 101.6L 259.2 102.4L 258.4 101.6z"/>
<path style="stroke:none; fill:#8da6d2" d="M 257.6 102.4L 258.4 103.2L 257.6 102.4z"/>
<path style="stroke:none; fill:#6c8fcc" d="M 256 103.2L 256.8 104L 256 103.2z"/>
<path style="stroke:none; fill:#b5c5e6" d="M 215.2 104L 216 104.8L 215.2 104z"/>
<path style="stroke:none; fill:#6c8fcc" d="M 216 104L 216.8 104.8L 216 104z"/>
<path style="stroke:none; fill:#9db3dd" d="M 255.2 104L 256 104.8L 255.2 104M 216.8 104.8L 217.6 105.6L 216.8 104.8z"/>
<path style="stroke:none; fill:#2c5fb8" d="M 217.6 104.8L 217.6 105.6L 220.8 106.4L 220.8 105.6L 217.6 104.8z"/>
<path style="stroke:none; fill:#cdd9ec" d="M 254.134 105.066C 253.778 105.422 254.622 105.378 254.666 105.334C 255.022 104.978 254.178 105.022 254.134 105.066z"/>
<path style="stroke:none; fill:#9db3dd" d="M 218.4 105.6L 219.2 106.4L 218.4 105.6M 251.734 105.866C 251.378 106.222 252.222 106.178 252.266 106.134C 252.622 105.778 251.778 105.822 251.734 105.866z"/>
<path style="stroke:none; fill:#acb8d2" d="M 220 106.4L 220.8 107.2L 220 106.4z"/>
<path style="stroke:none; fill:#3968bb" d="M 221.334 106.666C 220.978 107.022 221.822 106.978 221.866 106.934C 222.222 106.578 221.378 106.622 221.334 106.666z"/>
<path style="stroke:none; fill:#9db3dd" d="M 250.134 106.666C 249.778 107.022 250.622 106.978 250.666 106.934C 251.022 106.578 250.178 106.622 250.134 106.666z"/>
<path style="stroke:none; fill:#5e83c6" d="M 222.934 107.466C 222.578 107.822 223.422 107.778 223.466 107.734C 223.822 107.378 222.978 107.422 222.934 107.466z"/>
<path style="stroke:none; fill:#8da6d2" d="M 247.2 107.2L 247.2 108L 249.6 108C 248.602 107.452 248.362 107.401 247.2 107.2z"/>
<path style="stroke:none; fill:#6c8fcc" d="M 225.334 108.266C 224.978 108.622 225.822 108.578 225.866 108.534C 226.222 108.178 225.378 108.222 225.334 108.266M 244 108L 244 108.8L 246.4 108.8C 245.402 108.252 245.162 108.201 244 108z"/>
<path style="stroke:none; fill:#acb8d2" d="M 227.734 109.066C 227.378 109.422 228.222 109.378 228.266 109.334C 228.622 108.978 227.778 109.022 227.734 109.066z"/>
<path style="stroke:none; fill:#6c8fcc" d="M 229.334 109.066C 228.978 109.422 229.822 109.378 229.866 109.334C 230.222 108.978 229.378 109.022 229.334 109.066z"/>
<path style="stroke:none; fill:#2c5fb8" d="M 230.4 108.8L 230.4 109.6L 240 109.6C 237.042 108.358 233.586 108.8 230.4 108.8z"/>
<path style="stroke:none; fill:#6c8fcc" d="M 240.534 109.066C 240.178 109.422 241.022 109.378 241.066 109.334C 241.422 108.978 240.578 109.022 240.534 109.066z"/>
<path style="stroke:none; fill:#8da6d2" d="M 241.6 108.8L 241.6 109.6L 244 109.6C 243.002 109.052 242.762 109.001 241.6 108.8z"/>
<path style="stroke:none; fill:#d6deea" d="M 232 109.6L 232 110.4L 238.4 110.4C 236.31 109.522 234.269 109.606 232 109.6z"/>
</g>
</svg>